<svg id="Layer_1" data-name="Layer 1" xmlns="http://www.w3.org/2000/svg" xmlns:xlink="http://www.w3.org/1999/xlink" viewBox="0 0 500 50">
  <defs>
    <style>
      .cls-1 {
        fill: url(#radial-gradient);
      }
    </style>
    <radialGradient id="radial-gradient" cx="250" cy="25.31" r="145.64" gradientUnits="userSpaceOnUse">
      <stop offset="0" stop-color="lime"/>
      <stop offset="0.12" stop-color="#3bc400"/>
      <stop offset="0.24" stop-color="#6e9100"/>
      <stop offset="0.37" stop-color="#9b6400"/>
      <stop offset="0.49" stop-color="#bf4000"/>
      <stop offset="0.62" stop-color="#db2400"/>
      <stop offset="0.74" stop-color="#ef1000"/>
      <stop offset="0.87" stop-color="#fb0400"/>
      <stop offset="0.99" stop-color="red"/>
    </radialGradient>
  </defs>
  <title>aim</title>
  <g>
    <rect class="cls-1" x="44.5" y="11.5" width="411" height="27.63" rx="9.5" ry="9.5"/>
    <path d="M446,12a9,9,0,0,1,9,9v8.63a9,9,0,0,1-9,9H54a9,9,0,0,1-9-9V21a9,9,0,0,1,9-9H446m0-1H54A10,10,0,0,0,44,21v8.63a10,10,0,0,0,10,10H446a10,10,0,0,0,10-10V21a10,10,0,0,0-10-10Z"/>
  </g>
</svg>
