<svg id="Layer_2" data-name="Layer 2" xmlns="http://www.w3.org/2000/svg" viewBox="0 0 350 500">
  <defs>
    <style>
      .cls-1 {
        stroke: #000;
        stroke-miterlimit: 10;
        stroke-width: 10px;
      }

      .cls-2 {
        fill: #fff;
      }
    </style>
  </defs>
  <title>football</title>
  <circle class="cls-1" cx="181.07" cy="229.16" r="128.65"/>
  <path class="cls-2" d="M113.77,119.5l19,12.72s28.63-9.16,64.7-2.86l23.47-18.9S177.24,86.73,113.77,119.5Z"/>
  <path class="cls-2" d="M139,139.09l-22.33,45.23,36.64,46.38s43.52-6.3,51.53-4l27.48-55-29.2-35.49S169.38,129.36,139,139.09Z"/>
  <path class="cls-2" d="M145.34,234.7s-8,31.49-11.45,49.24L95,294.82,64,255.89S68,213,76.63,199.78l32.64-10.31Z"/>
  <path class="cls-2" d="M96.1,302.84,138.47,292s31.49,21.18,45.8,25.76l2.86,28.63s-16.07,5.15-17.17,8c0,0-38.36-1.15-73.86-31.21Z"/>
  <path class="cls-2" d="M192.86,318.3l3.43,26.91,24.62,2.86s28.06-4.39,58.4-40.27v-26H237.14S206.41,314.86,192.86,318.3Z"/>
  <path class="cls-2" d="M235,273.26h47.33s19.08-36.68,19.08-44.1-23.28-49.61-31.11-53.62H239.62l-25.77,52.68S225.68,240.81,235,273.26Z"/>
  <path class="cls-2" d="M57.45,251.59s-5.44-28.91,0-47.23S64,181.17,68,174.3l2.58,18.89s-6.43,14.32-7.79,24.62C62.83,217.81,56.91,236.47,57.45,251.59Z"/>
  <path class="cls-2" d="M279.31,150.83s29,35.11,27.48,73.57c0,0-14-40.37-27.48-50.67Z"/>
</svg>
