<svg id="Forgrund" xmlns="http://www.w3.org/2000/svg" viewBox="0 0 1366 768">
  <defs>
    <style>
      .cls-1 {
        fill: #1e3a23;
      }
    </style>
  </defs>
  <title>forgrund</title>
  <path class="cls-1" d="M122.5,842s5-104-88-90c0,0,109-81,106,90Z"/>
  <path class="cls-1" d="M122.5,847s17-149-48-171c0,0,68-3,70,85,0,0-12-56,43-103,0,0-51,163-47,189Z"/>
  <path class="cls-1" d="M112.5,834s31-100,104-101c0,0-88,48-86,101Z"/>
  <path class="cls-1" d="M187.5,816.5s27-76-7-114c0,0,65,44,45,114,0,0,2-98,53-121,0,0-44,70-13,138Z"/>
  <path class="cls-1" d="M295.5,833.5s-19-116-66-138c0,0,56-6,87,138Z"/>
  <path class="cls-1" d="M272.5,807.5s4-60,44-75c0,0-38,65-18,75Z"/>
  <path class="cls-1" d="M265.5,819.5s10-115,51-134c0,0-45,128-31,134Z"/>
  <path class="cls-1" d="M329.5,799.5s2.2-31.42-19.9-54.21c0,0,37.9,19.21,39.9,47.21,0,0-4-39,33-47,0,0-30,40-15,54Z"/>
  <path class="cls-1" d="M260.5,846s5-104-88-90c0,0,109-81,106,90Z"/>
  <path class="cls-1" d="M260.5,851s17-149-48-171c0,0,68-3,70,85,0,0-12-56,43-103,0,0-51,163-47,189Z"/>
  <path class="cls-1" d="M250.5,838s31-100,104-101c0,0-88,48-86,101Z"/>
  <path class="cls-1" d="M325.5,820.5s27-76-7-114c0,0,65,44,45,114,0,0,2-98,53-121,0,0-44,70-13,138Z"/>
  <path class="cls-1" d="M433.5,837.5s-19-116-66-138c0,0,56-6,87,138Z"/>
  <path class="cls-1" d="M410.5,811.5s4-60,44-75c0,0-38,65-18,75Z"/>
  <path class="cls-1" d="M403.5,823.5s10-115,51-134c0,0-45,128-31,134Z"/>
  <path class="cls-1" d="M453.5,800s2.2-31.42-19.9-54.21c0,0,37.9,19.21,39.9,47.21,0,0-4-39,33-47,0,0-30,40-15,54Z"/>
  <path class="cls-1" d="M799.5,842s-5-104,88-90c0,0-109-81-106,90Z"/>
  <path class="cls-1" d="M799.5,847s-17-149,48-171c0,0-68-3-70,85,0,0,12-56-43-103,0,0,51,163,47,189Z"/>
  <path class="cls-1" d="M809.5,834s-31-100-104-101c0,0,88,48,86,101Z"/>
  <path class="cls-1" d="M734.5,816.5s-27-76,7-114c0,0-65,44-45,114,0,0-2-98-53-121,0,0,44,70,13,138Z"/>
  <path class="cls-1" d="M626.5,833.5s19-116,66-138c0,0-56-6-87,138Z"/>
  <path class="cls-1" d="M649.5,807.5s-4-60-44-75c0,0,38,65,18,75Z"/>
  <path class="cls-1" d="M656.5,819.5s-10-115-51-134c0,0,45,128,31,134Z"/>
  <path class="cls-1" d="M592.5,799.5s-2.2-31.42,19.9-54.21c0,0-37.9,19.21-39.9,47.21,0,0,4-39-33-47,0,0,30,40,15,54Z"/>
  <path class="cls-1" d="M661.5,846s-5-104,88-90c0,0-109-81-106,90Z"/>
  <path class="cls-1" d="M661.5,851s-17-149,48-171c0,0-68-3-70,85,0,0,12-56-43-103,0,0,51,163,47,189Z"/>
  <path class="cls-1" d="M671.5,838s-31-100-104-101c0,0,88,48,86,101Z"/>
  <path class="cls-1" d="M596.5,820.5s-27-76,7-114c0,0-65,44-45,114,0,0-2-98-53-121,0,0,44,70,13,138Z"/>
  <path class="cls-1" d="M488.5,837.5s19-116,66-138c0,0-56-6-87,138Z"/>
  <path class="cls-1" d="M511.5,811.5s-4-60-44-75c0,0,38,65,18,75Z"/>
  <path class="cls-1" d="M518.5,823.5s-10-115-51-134c0,0,45,128,31,134Z"/>
  <path class="cls-1" d="M468.5,800s-2.2-31.42,19.9-54.21c0,0-37.9,19.21-39.9,47.21,0,0,4-39-33-47,0,0,30,40,15,54Z"/>
  <path class="cls-1" d="M1220.5,838s-5-104,88-90c0,0-109-81-106,90Z"/>
  <path class="cls-1" d="M1220.5,843s-17-149,48-171c0,0-68-3-70,85,0,0,12-56-43-103,0,0,51,163,47,189Z"/>
  <path class="cls-1" d="M1230.5,830s-31-100-104-101c0,0,88,48,86,101Z"/>
  <path class="cls-1" d="M1155.5,812.5s-27-76,7-114c0,0-65,44-45,114,0,0-2-98-53-121,0,0,44,70,13,138Z"/>
  <path class="cls-1" d="M1047.5,829.5s19-116,66-138c0,0-56-6-87,138Z"/>
  <path class="cls-1" d="M1070.5,803.5s-4-60-44-75c0,0,38,65,18,75Z"/>
  <path class="cls-1" d="M1077.5,815.5s-10-115-51-134c0,0,45,128,31,134Z"/>
  <path class="cls-1" d="M1013.5,795.5s-2.2-31.42,19.9-54.21c0,0-37.9,19.21-39.9,47.21,0,0,4-39-33-47,0,0,30,40,15,54Z"/>
  <path class="cls-1" d="M1082.5,842s-5-104,88-90c0,0-109-81-106,90Z"/>
  <path class="cls-1" d="M1082.5,847s-17-149,48-171c0,0-68-3-70,85,0,0,12-56-43-103,0,0,51,163,47,189Z"/>
  <path class="cls-1" d="M1092.5,834s-31-100-104-101c0,0,88,48,86,101Z"/>
  <path class="cls-1" d="M1017.5,816.5s-27-76,7-114c0,0-65,44-45,114,0,0-2-98-53-121,0,0,44,70,13,138Z"/>
  <path class="cls-1" d="M909.5,833.5s19-116,66-138c0,0-56-6-87,138Z"/>
  <path class="cls-1" d="M932.5,807.5s-4-60-44-75c0,0,38,65,18,75Z"/>
  <path class="cls-1" d="M939.5,819.5s-10-115-51-134c0,0,45,128,31,134Z"/>
  <path class="cls-1" d="M889.5,796s-2.2-31.42,19.9-54.21c0,0-37.9,19.21-39.9,47.21,0,0,4-39-33-47,0,0,30,40,15,54Z"/>
  <path class="cls-1" d="M-6.5,843.5s-19-116-66-138c0,0,56-6,87,138Z"/>
  <path class="cls-1" d="M-29.5,817.5s4-60,44-75c0,0-38,65-18,75Z"/>
  <path class="cls-1" d="M-36.5,829.5s10-115,51-134c0,0-45,128-31,134Z"/>
  <path class="cls-1" d="M13.5,806s2.2-31.42-19.9-54.21c0,0,37.9,19.21,39.9,47.21,0,0-4-39,33-47,0,0-30,40-15,54Z"/>
  <path class="cls-1" d="M48.5,843.5s19-116,66-138c0,0-56-6-87,138Z"/>
  <path class="cls-1" d="M71.5,817.5s-4-60-44-75c0,0,38,65,18,75Z"/>
  <path class="cls-1" d="M78.5,829.5s-10-115-51-134c0,0,45,128,31,134Z"/>
  <path class="cls-1" d="M28.5,806s-2.2-31.42,19.9-54.21c0,0-37.9,19.21-39.9,47.21,0,0,4-39-33-47,0,0,30,40,15,54Z"/>
  <path class="cls-1" d="M1177.5,888s17-149-48-171c0,0,68-3,70,85,0,0-12-56,43-103,0,0-51,163-47,189Z"/>
  <path class="cls-1" d="M1242.5,857.5s27-76-7-114c0,0,65,44,45,114,0,0,2-98,53-121,0,0-44,70-13,138Z"/>
  <path class="cls-1" d="M1350.5,874.5s-19-116-66-138c0,0,56-6,87,138Z"/>
  <path class="cls-1" d="M1320.5,860.5s10-115,51-134c0,0-45,128-31,134Z"/>
  <path class="cls-1" d="M1315.5,892s17-149-48-171c0,0,68-3,70,85,0,0-12-56,43-103,0,0-51,163-47,189Z"/>
</svg>
