<svg id="Forgrund" xmlns="http://www.w3.org/2000/svg" viewBox="0 0 1366 110">
  <defs>
    <style>
      .cls-1 {
        fill: #1e3a23;
      }
    </style>
  </defs>
  <title>forgrund-02</title>
  <path class="cls-1" d="M122.5,184s5-104-88-90c0,0,109-81,106,90Z"/>
  <path class="cls-1" d="M122.5,189s17-149-48-171c0,0,68-3,70,85,0,0-12-56,43-103,0,0-51,163-47,189Z"/>
  <path class="cls-1" d="M112.5,176s31-100,104-101c0,0-88,48-86,101Z"/>
  <path class="cls-1" d="M187.5,158.5s27-76-7-114c0,0,65,44,45,114,0,0,2-98,53-121,0,0-44,70-13,138Z"/>
  <path class="cls-1" d="M295.5,175.5s-19-116-66-138c0,0,56-6,87,138Z"/>
  <path class="cls-1" d="M272.5,149.5s4-60,44-75c0,0-38,65-18,75Z"/>
  <path class="cls-1" d="M265.5,161.5s10-115,51-134c0,0-45,128-31,134Z"/>
  <path class="cls-1" d="M329.5,141.5s2.2-31.4-19.9-54.2c0,0,37.9,19.2,39.9,47.2,0,0-4-39,33-47,0,0-30,40-15,54Z"/>
  <path class="cls-1" d="M260.5,188s5-104-88-90c0,0,109-81,106,90Z"/>
  <path class="cls-1" d="M260.5,193s17-149-48-171c0,0,68-3,70,85,0,0-12-56,43-103,0,0-51,163-47,189Z"/>
  <path class="cls-1" d="M250.5,180s31-100,104-101c0,0-88,48-86,101Z"/>
  <path class="cls-1" d="M325.5,162.5s27-76-7-114c0,0,65,44,45,114,0,0,2-98,53-121,0,0-44,70-13,138Z"/>
  <path class="cls-1" d="M433.5,179.5s-19-116-66-138c0,0,56-6,87,138Z"/>
  <path class="cls-1" d="M410.5,153.5s4-60,44-75c0,0-38,65-18,75Z"/>
  <path class="cls-1" d="M403.5,165.5s10-115,51-134c0,0-45,128-31,134Z"/>
  <path class="cls-1" d="M453.5,142s2.2-31.4-19.9-54.2c0,0,37.9,19.2,39.9,47.2,0,0-4-39,33-47,0,0-30,40-15,54Z"/>
  <path class="cls-1" d="M799.5,184s-5-104,88-90c0,0-109-81-106,90Z"/>
  <path class="cls-1" d="M799.5,189s-17-149,48-171c0,0-68-3-70,85,0,0,12-56-43-103,0,0,51,163,47,189Z"/>
  <path class="cls-1" d="M809.5,176s-31-100-104-101c0,0,88,48,86,101Z"/>
  <path class="cls-1" d="M734.5,158.5s-27-76,7-114c0,0-65,44-45,114,0,0-2-98-53-121,0,0,44,70,13,138Z"/>
  <path class="cls-1" d="M626.5,175.5s19-116,66-138c0,0-56-6-87,138Z"/>
  <path class="cls-1" d="M649.5,149.5s-4-60-44-75c0,0,38,65,18,75Z"/>
  <path class="cls-1" d="M656.5,161.5s-10-115-51-134c0,0,45,128,31,134Z"/>
  <path class="cls-1" d="M592.5,141.5s-2.2-31.4,19.9-54.2c0,0-37.9,19.2-39.9,47.2,0,0,4-39-33-47,0,0,30,40,15,54Z"/>
  <path class="cls-1" d="M661.5,188s-5-104,88-90c0,0-109-81-106,90Z"/>
  <path class="cls-1" d="M661.5,193s-17-149,48-171c0,0-68-3-70,85,0,0,12-56-43-103,0,0,51,163,47,189Z"/>
  <path class="cls-1" d="M671.5,180s-31-100-104-101c0,0,88,48,86,101Z"/>
  <path class="cls-1" d="M596.5,162.5s-27-76,7-114c0,0-65,44-45,114,0,0-2-98-53-121,0,0,44,70,13,138Z"/>
  <path class="cls-1" d="M488.5,179.5s19-116,66-138c0,0-56-6-87,138Z"/>
  <path class="cls-1" d="M511.5,153.5s-4-60-44-75c0,0,38,65,18,75Z"/>
  <path class="cls-1" d="M518.5,165.5s-10-115-51-134c0,0,45,128,31,134Z"/>
  <path class="cls-1" d="M468.5,142s-2.2-31.4,19.9-54.2c0,0-37.9,19.2-39.9,47.2,0,0,4-39-33-47,0,0,30,40,15,54Z"/>
  <path class="cls-1" d="M1220.5,180s-5-104,88-90c0,0-109-81-106,90Z"/>
  <path class="cls-1" d="M1220.5,185s-17-149,48-171c0,0-68-3-70,85,0,0,12-56-43-103,0,0,51,163,47,189Z"/>
  <path class="cls-1" d="M1230.5,172s-31-100-104-101c0,0,88,48,86,101Z"/>
  <path class="cls-1" d="M1155.5,154.5s-27-76,7-114c0,0-65,44-45,114,0,0-2-98-53-121,0,0,44,70,13,138Z"/>
  <path class="cls-1" d="M1047.5,171.5s19-116,66-138c0,0-56-6-87,138Z"/>
  <path class="cls-1" d="M1070.5,145.5s-4-60-44-75c0,0,38,65,18,75Z"/>
  <path class="cls-1" d="M1077.5,157.5s-10-115-51-134c0,0,45,128,31,134Z"/>
  <path class="cls-1" d="M1013.5,137.5s-2.2-31.4,19.9-54.2c0,0-37.9,19.2-39.9,47.2,0,0,4-39-33-47,0,0,30,40,15,54Z"/>
  <path class="cls-1" d="M1082.5,184s-5-104,88-90c0,0-109-81-106,90Z"/>
  <path class="cls-1" d="M1082.5,189s-17-149,48-171c0,0-68-3-70,85,0,0,12-56-43-103,0,0,51,163,47,189Z"/>
  <path class="cls-1" d="M1092.5,176s-31-100-104-101c0,0,88,48,86,101Z"/>
  <path class="cls-1" d="M1017.5,158.5s-27-76,7-114c0,0-65,44-45,114,0,0-2-98-53-121,0,0,44,70,13,138Z"/>
  <path class="cls-1" d="M909.5,175.5s19-116,66-138c0,0-56-6-87,138Z"/>
  <path class="cls-1" d="M932.5,149.5s-4-60-44-75c0,0,38,65,18,75Z"/>
  <path class="cls-1" d="M939.5,161.5s-10-115-51-134c0,0,45,128,31,134Z"/>
  <path class="cls-1" d="M889.5,138s-2.2-31.4,19.9-54.2c0,0-37.9,19.2-39.9,47.2,0,0,4-39-33-47,0,0,30,40,15,54Z"/>
  <path class="cls-1" d="M-6.5,185.5s-19-116-66-138c0,0,56-6,87,138Z"/>
  <path class="cls-1" d="M-29.5,159.5s4-60,44-75c0,0-38,65-18,75Z"/>
  <path class="cls-1" d="M-36.5,171.5s10-115,51-134c0,0-45,128-31,134Z"/>
  <path class="cls-1" d="M13.5,148s2.2-31.4-19.9-54.2c0,0,37.9,19.2,39.9,47.2,0,0-4-39,33-47,0,0-30,40-15,54Z"/>
  <path class="cls-1" d="M48.5,185.5s19-116,66-138c0,0-56-6-87,138Z"/>
  <path class="cls-1" d="M71.5,159.5s-4-60-44-75c0,0,38,65,18,75Z"/>
  <path class="cls-1" d="M78.5,171.5s-10-115-51-134c0,0,45,128,31,134Z"/>
  <path class="cls-1" d="M28.5,148s-2.2-31.4,19.9-54.2c0,0-37.9,19.2-39.9,47.2,0,0,4-39-33-47,0,0,30,40,15,54Z"/>
  <path class="cls-1" d="M1177.5,230s17-149-48-171c0,0,68-3,70,85,0,0-12-56,43-103,0,0-51,163-47,189Z"/>
  <path class="cls-1" d="M1242.5,199.5s27-76-7-114c0,0,65,44,45,114,0,0,2-98,53-121,0,0-44,70-13,138Z"/>
  <path class="cls-1" d="M1350.5,216.5s-19-116-66-138c0,0,56-6,87,138Z"/>
  <path class="cls-1" d="M1320.5,202.5s10-115,51-134c0,0-45,128-31,134Z"/>
  <path class="cls-1" d="M1315.5,234s17-149-48-171c0,0,68-3,70,85,0,0-12-56,43-103,0,0-51,163-47,189Z"/>
</svg>
