<svg xmlns="http://www.w3.org/2000/svg" viewBox="0 0 2100 1000">
  <defs>
    <style>
      .cls-1, .cls-5 {
        fill: none;
      }

      .cls-2 {
        fill: #664d4d;
      }

      .cls-3 {
        fill: #2e0100;
      }

      .cls-4, .cls-7 {
        fill: #b2b2b2;
      }

      .cls-5, .cls-7 {
        stroke: #b2b2b2;
        stroke-miterlimit: 10;
      }

      .cls-6 {
        fill: #fff;
      }
    </style>
  </defs>
  <title>keeper_uden_baggrund</title>
  <g id="Layer_1" data-name="Layer 1">
    <rect class="cls-1" width="350" height="500"/>
    <path class="cls-2" d="M104.11,264.44s-24-7.2-19.25,24.16c0,0-21.68,17.55-29,20,0,0-6.66,0-18-3.53,0,0-8.43.3-2,5.69l7.65,2.35s4.21.88-3.53,5.09-9.8,7.06-9.8,7.06-2.06,3.23,2.45,3.53c13.83-11.06-6.6,5.74,1.76,5.68,2.33-.53,6.11-4,9.41-6.47l-6.08,5.39s-1.47,1.57-1.07,2.55A4.06,4.06,0,0,0,40.08,338c1.76.19,8.52-7.84,8.52-7.84a45.31,45.31,0,0,0-3.53,4.9,4.14,4.14,0,0,0-.49,2.94,3.56,3.56,0,0,0,4.22.78c2.35-1.27,6.86-9.41,8.62-14.21,0,0,3.53-4.31,5.49-4.8s51-29.46,51-44.23l-9.76-11.09"/>
    <path class="cls-2" d="M246.77,261s24-7.2,19.25,24.16c0,0,21.68,17.55,29,20,0,0,6.67,0,18-3.53,0,0,8.42.3,2,5.68l-7.65,2.36s-4.21.88,3.53,5.09,9.8,7.06,9.8,7.06,2.06,3.23-2.45,3.53c-13.83-11.06,6.6,5.74-1.76,5.68-2.34-.53-6.11-4-9.41-6.47l6.07,5.39s1.47,1.57,1.08,2.55a4.06,4.06,0,0,1-3.43,2.06c-1.76.19-8.52-7.84-8.52-7.84a44.26,44.26,0,0,1,3.52,4.9,4.08,4.08,0,0,1,.49,2.94,3.55,3.55,0,0,1-4.21.78c-2.35-1.27-6.86-9.41-8.62-14.21,0,0-3.53-4.31-5.49-4.8s-51-29.46-51-44.23L246.77,261"/>
    <g>
      <path class="cls-3" d="M114.64,243.4l-6-14.37s-1.83-12.81,28.75-11.76,97.47,1,97.47,1,22.48-.26,11,18l-5.23,10.71,10.45,13.07c-2,8-7.57,19.34-10.19,19.07s-9.93-13.06-10.19-17.51-31.62,69.78-31.62,69.78l-.26,11.24c1.38,16.77-41.91,13.63-35.28-1.31l1-10.45s-44.68-62.72-39.72-64c0,0-14.63,16.46-12.28,16.46,0,0-15.42-15.15-15.16-20.38s0-2.09,0-2.09Z"/>
      <path class="cls-2" d="M149.14,365.7v17.77s-25.61,20.12-23.52,8.89S140,379.29,140,379.29l2-16.61Z"/>
      <path class="cls-2" d="M209,362.67v17.77s25.61,20.12,23.51,8.88-14.37-13.06-14.37-13.06l-2-16.62Z"/>
      <path class="cls-4" d="M147.31,253.33s19.34-.78,20.38-3.14-6-23.25-7.84-22.21S144.93,253.45,147.31,253.33Z"/>
      <path class="cls-4" d="M193.56,249.41s8.89-19.86,12.55-23.52,9.66,23.52,9.66,23.52S192.21,252.37,193.56,249.41Z"/>
      <path class="cls-5" d="M165.79,283s33.45-1.57,36.58-14.9"/>
      <path class="cls-6" d="M163.29,342.7s11,6.86,35.28,1.31c0,0,16.92,6,19.34,9.93s-8.31,14.48-13.06,10.19l-10.72-9.67s-12.15,6-29.53.26L153.1,367s-17.78-2.62-13.06-7.32S155.06,343.22,163.29,342.7Z"/>
    </g>
  </g>
  <g id="Layer_4" data-name="Layer 4">
    <rect class="cls-1" x="350.38" y="0.72" width="350" height="500"/>
    <path class="cls-2" d="M592,271.1S581.5,294,605,297c0,0,13,25.56,11.5,34.3,0,0-20,15.74-7,15.74l7.12-8.8s4.38,2.59-4.12,16.94,23,8.86,22-14.14S609,261,597.5,259.3Z"/>
    <path class="cls-2" d="M457.12,271s12.47,21.87-10.67,27c0,0-10.7,26.6-8.44,35.18,0,0,21.31,13.92,8.36,15.06L438.5,340s-4.13,3,5.6,16.52S422,367.38,420.94,344.38s18.36-82,29.66-84.71Z"/>
    <g>
      <path class="cls-3" d="M463.36,243.4l-6-14.37s-1.83-12.81,28.75-11.76,97.47,1,97.47,1,22.47-.26,11,18l-5.23,10.71,10.45,13.07c-2,8-7.58,19.34-10.19,19.07s-9.93-13.06-10.19-17.51-31.62,69.78-31.62,69.78l-.26,11.24c1.38,16.77-41.91,13.63-35.28-1.31l1-10.45s-44.68-62.72-39.72-64c0,0-14.63,16.46-12.28,16.46,0,0-15.42-15.15-15.16-20.38s0-2.09,0-2.09Z"/>
      <path class="cls-2" d="M497.86,365.7v17.77s-25.61,20.12-23.52,8.89,14.37-13.07,14.37-13.07l2-16.61Z"/>
      <path class="cls-2" d="M557.72,362.67v17.77s25.61,20.12,23.52,8.88-14.37-13.06-14.37-13.06l-2-16.62Z"/>
      <path class="cls-4" d="M496,253.33s19.33-.78,20.38-3.14-6-23.25-7.84-22.21S493.65,253.45,496,253.33Z"/>
      <path class="cls-4" d="M542.28,249.41s8.89-19.86,12.54-23.52,9.67,23.52,9.67,23.52S540.93,252.37,542.28,249.41Z"/>
      <path class="cls-5" d="M514.51,283s33.45-1.57,36.58-14.9"/>
      <path class="cls-6" d="M512,342.7s11,6.86,35.28,1.31c0,0,16.92,6,19.34,9.93s-8.31,14.48-13.07,10.19l-10.71-9.67s-12.15,6-29.53.26L501.82,367s-17.78-2.62-13.06-7.32S503.78,343.22,512,342.7Z"/>
    </g>
  </g>
  <g id="Layer_5" data-name="Layer 5">
    <rect class="cls-1" x="700.38" width="350" height="500"/>
    <path class="cls-2" d="M946,270c-16.43,10.37,6.34,24.87,12.76,23.81,0,0,11.3,12.87,9.91,15.19-2,3.34-31.61,14-31.61,14s-10.71-11.66-14.39-7.66S933,326,933,326a33.1,33.1,0,0,0-14.67,3.34c-7.33,3.66-2,13.66,12.67,15,0,0,54-17.59,53.33-33.13s-20-47.21-33-50.54Z"/>
    <path class="cls-2" d="M806.79,274c16.43,10.37-6.33,24.87-12.75,23.81,0,0-11.31,12.87-9.92,15.19,2,3.34,31.61,14,31.61,14s10.71-11.66,14.39-7.66S819.79,330,819.79,330a33.1,33.1,0,0,1,14.67,3.34c7.33,3.66,2,13.66-12.67,15,0,0-54-17.59-53.33-33.13s20-47.21,33-50.54Z"/>
    <g>
      <path class="cls-3" d="M815.05,244.19l-6-14.37s-1.83-12.81,28.75-11.76,97.47,1,97.47,1,22.48-.26,11,18L941,247.85l10.46,13.06c-2,8-7.58,19.34-10.2,19.08s-9.93-13.07-10.19-17.51-31.62,69.78-31.62,69.78l-.26,11.23c1.38,16.78-41.91,13.64-35.28-1.3L865,331.73s-44.69-62.72-39.73-64c0,0-14.63,16.46-12.28,16.46,0,0-15.42-15.16-15.15-20.38s0-2.09,0-2.09Z"/>
      <path class="cls-2" d="M849.55,366.49v17.77s-25.61,20.12-23.52,8.88,14.37-13.06,14.37-13.06l2-16.62Z"/>
      <path class="cls-2" d="M909.42,363.46v17.76s25.61,20.13,23.52,8.89S918.56,377,918.56,377l-2-16.61Z"/>
      <path class="cls-7" d="M847.72,254.12s19.34-.79,20.38-3.14-6-23.26-7.84-22.21S845.34,254.24,847.72,254.12Z"/>
      <path class="cls-7" d="M894,250.2s8.89-19.86,12.55-23.52,9.67,23.52,9.67,23.52S892.62,253.15,894,250.2Z"/>
      <path class="cls-5" d="M866.2,283.77s33.45-1.57,36.58-14.9"/>
      <path class="cls-6" d="M863.71,343.49s11,6.86,35.28,1.3c0,0,16.92,6,19.33,9.93s-8.3,14.49-13.06,10.19l-10.72-9.67s-12.15,5.95-29.53.27l-11.5,12.28s-17.78-2.63-13.06-7.32S855.47,344,863.71,343.49Z"/>
    </g>
  </g>
  <g id="Layer_6" data-name="Layer 6">
    <rect class="cls-1" x="1050.38" width="350" height="500"/>
    <path class="cls-2" d="M1293.78,273.78s-15.26,21.35,1,26.29-15.69,20.12-15.69,20.12-16.48-9.47-16.8-4,10.55,8.13,10.55,8.13-40.21,8.11-8.18,14.26,51.18-30.28,51.18-30.28-3.43-44.49-15.33-46.58Z"/>
    <path class="cls-2" d="M1155.1,274.32s18.2,18.91,2.84,26.15,18.44,17.64,18.44,17.64,14.94-11.76,16-6.38-9.26,9.57-9.26,9.57,41,2.21,10.15,12.93-55-22.55-55-22.55-3-44.51,8.42-48.31Z"/>
    <g>
      <path class="cls-3" d="M1164,243.42l-6-14.37s-1.83-12.81,28.75-11.76,97.47,1,97.47,1,22.48-.26,11,18L1290,247.08l10.45,13.06c-2,8.05-7.57,19.34-10.19,19.08s-9.93-13.06-10.19-17.51-31.62,69.78-31.62,69.78l-.26,11.23c1.38,16.78-41.91,13.64-35.28-1.3l1-10.46s-44.69-62.72-39.73-64c0,0-14.63,16.46-12.28,16.46,0,0-15.42-15.16-15.16-20.38s0-2.09,0-2.09Z"/>
      <path class="cls-2" d="M1198.53,365.72v17.77s-25.61,20.12-23.52,8.88,14.37-13.06,14.37-13.06l2-16.62Z"/>
      <path class="cls-2" d="M1258.4,362.69v17.76s25.61,20.13,23.52,8.89-14.38-13.07-14.38-13.07l-2-16.61Z"/>
      <path class="cls-4" d="M1196.7,253.35s19.34-.79,20.38-3.14-6-23.26-7.84-22.21S1194.32,253.47,1196.7,253.35Z"/>
      <path class="cls-4" d="M1243,249.43s8.89-19.86,12.55-23.52,9.67,23.52,9.67,23.52S1241.6,252.38,1243,249.43Z"/>
      <path class="cls-5" d="M1215.18,283s33.45-1.57,36.58-14.9"/>
      <path class="cls-6" d="M1212.69,342.72s11,6.86,35.27,1.3c0,0,16.93,6,19.34,9.93s-8.3,14.49-13.06,10.19l-10.72-9.66s-12.15,5.94-29.53.26L1202.49,367s-17.78-2.63-13.06-7.32S1204.45,343.24,1212.69,342.72Z"/>
    </g>
  </g>
  <g id="Layer_8" data-name="Layer 8">
    <rect class="cls-1" x="1400" y="0.79" width="350" height="500"/>
    <path class="cls-2" d="M1642.82,273.78s-15.26,21.35,1,26.29-15.69,20.12-15.69,20.12-16.48-9.47-16.79-4,10.54,8.13,10.54,8.13-40.2,8.11-8.17,14.26,51.17-30.28,51.17-30.28-3.43-44.49-15.33-46.58Z"/>
    <path class="cls-2" d="M1504.67,274s18.19,18.91,2.84,26.15S1526,317.76,1526,317.76s14.93-11.76,16-6.37-9.26,9.56-9.26,9.56,41,2.21,10.16,12.94-55-22.56-55-22.56-3.06-44.51,8.41-48.31Z"/>
    <g>
      <path class="cls-3" d="M1513.08,243.42l-6-14.37s-1.83-12.81,28.74-11.76,97.48,1,97.48,1,22.47-.26,11,18L1639,247.08l10.45,13.06c-2,8.05-7.58,19.34-10.19,19.08s-9.93-13.06-10.19-17.51-31.62,69.78-31.62,69.78l-.27,11.23c1.39,16.78-41.9,13.64-35.27-1.3l1-10.46s-44.69-62.72-39.72-64c0,0-14.64,16.46-12.28,16.46,0,0-15.42-15.16-15.16-20.38s0-2.09,0-2.09Z"/>
      <path class="cls-2" d="M1547.57,365.72v17.77s-25.61,20.12-23.52,8.88,14.38-13.06,14.38-13.06l2-16.62Z"/>
      <path class="cls-2" d="M1607.44,362.69v17.76s25.61,20.13,23.52,8.89-14.37-13.07-14.37-13.07l-2-16.61Z"/>
      <path class="cls-4" d="M1545.74,253.35s19.34-.79,20.39-3.14-6-23.26-7.84-22.21S1543.37,253.47,1545.74,253.35Z"/>
      <path class="cls-4" d="M1592,250.57s8.88-2.55,12.54-3,9.67,3,9.67,3S1590.65,251,1592,250.57Z"/>
      <path class="cls-5" d="M1564.22,283s33.45-1.57,36.59-14.9"/>
      <path class="cls-6" d="M1561.73,342.72s11,6.86,35.28,1.3c0,0,16.92,6,19.34,9.93s-8.31,14.49-13.07,10.19l-10.71-9.66s-12.15,5.94-29.53.26L1551.54,367s-17.78-2.63-13.07-7.32S1553.5,343.24,1561.73,342.72Z"/>
    </g>
  </g>
  <g id="Layer_7" data-name="Layer 7">
    <rect class="cls-1" x="-0.08" y="500.56" width="350" height="500"/>
    <path class="cls-2" d="M104.05,764.23s-24-7.2-19.25,24.15c0,0-21.69,17.55-29,20,0,0-6.66,0-18-3.53,0,0-8.43.29-2,5.68l7.64,2.35s4.22.89-3.53,5.1-9.8,7.06-9.8,7.06-2.05,3.23,2.45,3.52c13.83-11-6.59,5.74,1.77,5.69,2.33-.54,6.1-4,9.41-6.47l-6.08,5.39s-1.47,1.57-1.08,2.55a4,4,0,0,0,3.43,2c1.77.2,8.53-7.83,8.53-7.83a43.93,43.93,0,0,0-3.53,4.9,4.14,4.14,0,0,0-.49,2.94,3.56,3.56,0,0,0,4.21.78c2.36-1.28,6.86-9.41,8.63-14.21,0,0,3.53-4.31,5.49-4.8s50.95-29.47,50.95-44.23l-9.75-11.09"/>
    <path class="cls-2" d="M246.7,760.8s24-7.21,19.25,24.15c0,0,21.69,17.55,29,20,0,0,6.66,0,18-3.53,0,0,8.43.29,2,5.68l-7.64,2.35s-4.22.89,3.53,5.1,9.8,7.05,9.8,7.05,2.05,3.24-2.45,3.53c-13.83-11,6.59,5.74-1.77,5.69-2.33-.54-6.1-4-9.41-6.47l6.08,5.39s1.47,1.57,1.08,2.55a4,4,0,0,1-3.43,2.05c-1.77.2-8.53-7.84-8.53-7.84a45,45,0,0,1,3.53,4.9,4.17,4.17,0,0,1,.49,3,3.56,3.56,0,0,1-4.21.78c-2.36-1.28-6.86-9.41-8.63-14.21,0,0-3.53-4.31-5.49-4.8S237,786.65,237,771.89l9.75-11.09"/>
    <path class="cls-3" d="M114.58,743.19l-6-14.37s-1.83-12.81,28.74-11.76,97.48,1,97.48,1,22.47-.26,11,18l-5.22,10.72L251,759.91c-2,8.05-7.58,19.34-10.19,19.08s-9.93-13.07-10.19-17.51S199,831.26,199,831.26l-.27,11.23c1.39,16.78-41.9,13.64-35.27-1.3l1-10.46s-44.69-62.72-39.72-64c0,0-14.64,16.46-12.28,16.46,0,0-15.42-15.16-15.16-20.38s0-2.09,0-2.09Z"/>
    <path class="cls-2" d="M149.07,865.49v17.77s-25.61,20.12-23.52,8.88,14.38-13.06,14.38-13.06l2-16.62Z"/>
    <path class="cls-2" d="M208.94,862.46v17.76s25.61,20.13,23.52,8.89S218.09,876,218.09,876l-2-16.61Z"/>
    <path class="cls-4" d="M147.24,753.12s19.34-.79,20.39-3.14-6-23.26-7.84-22.21S144.87,753.24,147.24,753.12Z"/>
    <path class="cls-4" d="M193.5,749.2s8.88-19.86,12.54-23.52,9.67,23.52,9.67,23.52S192.15,752.15,193.5,749.2Z"/>
    <path class="cls-5" d="M165.72,782.77s33.45-1.57,36.59-14.9"/>
    <path class="cls-6" d="M163.23,842.49s11,6.86,35.28,1.3c0,0,16.92,6,19.34,9.93s-8.31,14.49-13.07,10.19l-10.71-9.67s-12.15,6-29.53.27L153,866.79s-17.79-2.63-13.07-7.32S155,843,163.23,842.49Z"/>
  </g>
  <g id="Layer_9" data-name="Layer 9">
    <rect class="cls-1" x="1750" y="0.12" width="350" height="500"/>
    <path class="cls-2" d="M1997.8,272.75s-15.26,21.35,1,26.29-15.69,20.12-15.69,20.12-16.48-9.47-16.8-4,10.55,8.13,10.55,8.13-40.21,8.11-8.17,14.26,51.17-30.28,51.17-30.28-3.43-44.49-15.33-46.58Z"/>
    <path class="cls-2" d="M1860.49,275.32s18.19,18.91,2.84,26.15,18.44,17.64,18.44,17.64,14.93-11.76,16-6.38-9.25,9.57-9.25,9.57,41,2.21,10.15,12.93-55-22.55-55-22.55-3-44.51,8.42-48.31Z"/>
    <path class="cls-3" d="M1868.75,243.42l-6-14.37s-1.83-12.81,28.75-11.76,97.47,1,97.47,1,22.48-.26,11,18l-5.23,10.72,10.46,13.06c-2,8.05-7.58,19.34-10.2,19.08s-9.93-13.06-10.19-17.51-31.62,69.78-31.62,69.78l-.26,11.23c1.38,16.78-41.91,13.64-35.28-1.3l1.05-10.46s-44.69-62.72-39.72-64c0,0-14.64,16.46-12.29,16.46,0,0-15.42-15.16-15.15-20.38s0-2.09,0-2.09Z"/>
    <path class="cls-2" d="M1903.25,365.72v17.77s-25.61,20.12-23.52,8.88,14.37-13.06,14.37-13.06l2-16.62Z"/>
    <path class="cls-2" d="M1963.12,362.69v17.76s25.61,20.13,23.52,8.89-14.38-13.07-14.38-13.07l-2-16.61Z"/>
    <path class="cls-4" d="M1901.42,253.35s19.34-.79,20.38-3.14-6-23.26-7.84-22.21S1899.05,253.47,1901.42,253.35Z"/>
    <path class="cls-4" d="M1947.67,249.43s8.89-19.86,12.55-23.52,9.67,23.52,9.67,23.52S1946.32,252.38,1947.67,249.43Z"/>
    <path class="cls-5" d="M1919.9,283s33.45-1.57,36.59-14.9"/>
    <path class="cls-6" d="M1917.41,342.72s11,6.86,35.28,1.3c0,0,16.92,6,19.33,9.93s-8.3,14.49-13.06,10.19l-10.72-9.66s-12.15,5.94-29.53.26L1907.22,367s-17.79-2.63-13.07-7.32S1909.18,343.24,1917.41,342.72Z"/>
  </g>
</svg>
