<svg id="Mellemgrund" xmlns="http://www.w3.org/2000/svg" viewBox="0 0 1366 768">
  <defs>
    <style>
      .cls-1 {
        fill: #26c62e;
      }

      .cls-2 {
        fill: #658593;
      }

      .cls-3 {
        fill: #423534;
      }

      .cls-10, .cls-11, .cls-4 {
        fill: none;
        stroke-miterlimit: 10;
      }

      .cls-4 {
        stroke: #000;
      }

      .cls-5 {
        fill: #313a3f;
      }

      .cls-6 {
        fill: #eaeac5;
      }

      .cls-7 {
        fill: #cecece;
      }

      .cls-8 {
        fill: #e6e8e6;
      }

      .cls-9 {
        fill: #fff;
      }

      .cls-10 {
        stroke: #e6e8e6;
        stroke-width: 11px;
      }

      .cls-11 {
        stroke: #313a3f;
        stroke-width: 6px;
      }
    </style>
  </defs>
  <title>mellemgrund</title>
  <rect class="cls-1" y="414" width="1366" height="354"/>
  <path class="cls-2" d="M116.17-6.5S81,128,683,145c0,0,561-9,566-154h123V271L-11,272V-9Z"/>
  <rect class="cls-3" x="-19" y="266" width="1385" height="118"/>
  <path class="cls-4" d="M379.5,349.5s20-50,38,0"/>
  <path class="cls-4" d="M379.5,329.5s20-50,38,0"/>
  <path class="cls-4" d="M378.5,307.5s20-50,38,0"/>
  <path class="cls-4" d="M14,354s74-43,52,0"/>
  <path class="cls-4" d="M22,332s74-43,52,0"/>
  <path class="cls-4" d="M32,307s74-43,52,0"/>
  <path class="cls-4" d="M104,354s47-58,52-5"/>
  <path class="cls-4" d="M107,331s47-58,52-5"/>
  <path class="cls-4" d="M110,311s47-58,52-5"/>
  <path class="cls-4" d="M189,348s28-50,42,0"/>
  <path class="cls-4" d="M189,328s28-50,42,0"/>
  <path class="cls-4" d="M189,305s28-50,42,0"/>
  <path class="cls-4" d="M259.5,348.5s20-50,38,0"/>
  <path class="cls-4" d="M259.5,328.5s20-50,38,0"/>
  <path class="cls-4" d="M258.5,306.5s20-50,38,0"/>
  <path class="cls-4" d="M319.5,348.5s20-50,38,0"/>
  <path class="cls-4" d="M319.5,328.5s20-50,38,0"/>
  <path class="cls-4" d="M318.5,306.5s20-50,38,0"/>
  <path class="cls-4" d="M434.5,349.5s20-50,38,0"/>
  <path class="cls-4" d="M434.5,329.5s20-50,38,0"/>
  <path class="cls-4" d="M433.5,307.5s20-50,38,0"/>
  <path class="cls-4" d="M487.5,348.5s20-50,38,0"/>
  <path class="cls-4" d="M487.5,328.5s20-50,38,0"/>
  <path class="cls-4" d="M486.5,306.5s20-50,38,0"/>
  <path class="cls-4" d="M540.5,349.5s20-50,38,0"/>
  <path class="cls-4" d="M540.5,329.5s20-50,38,0"/>
  <path class="cls-4" d="M539.5,307.5s20-50,38,0"/>
  <path class="cls-4" d="M597.5,349.5s20-50,38,0"/>
  <path class="cls-4" d="M597.5,329.5s20-50,38,0"/>
  <path class="cls-4" d="M596.5,307.5s20-50,38,0"/>
  <path class="cls-4" d="M644.5,349.5s20-50,38,0"/>
  <path class="cls-4" d="M644.5,329.5s20-50,38,0"/>
  <path class="cls-4" d="M643.5,307.5s20-50,38,0"/>
  <path class="cls-4" d="M993,349.5s-20-50-38,0"/>
  <path class="cls-4" d="M993,329.5s-20-50-38,0"/>
  <path class="cls-4" d="M994,307.5s-20-50-38,0"/>
  <path class="cls-4" d="M1358.5,354s-74-43-52,0"/>
  <path class="cls-4" d="M1350.5,332s-74-43-52,0"/>
  <path class="cls-4" d="M1340.5,307s-74-43-52,0"/>
  <path class="cls-4" d="M1268.5,354s-47-58-52-5"/>
  <path class="cls-4" d="M1265.5,331s-47-58-52-5"/>
  <path class="cls-4" d="M1262.5,311s-47-58-52-5"/>
  <path class="cls-4" d="M1183.5,348s-28-50-42,0"/>
  <path class="cls-4" d="M1183.5,328s-28-50-42,0"/>
  <path class="cls-4" d="M1183.5,305s-28-50-42,0"/>
  <path class="cls-4" d="M1113,348.5s-20-50-38,0"/>
  <path class="cls-4" d="M1113,328.5s-20-50-38,0"/>
  <path class="cls-4" d="M1114,306.5s-20-50-38,0"/>
  <path class="cls-4" d="M1053,348.5s-20-50-38,0"/>
  <path class="cls-4" d="M1053,328.5s-20-50-38,0"/>
  <path class="cls-4" d="M1054,306.5s-20-50-38,0"/>
  <path class="cls-4" d="M938,349.5s-20-50-38,0"/>
  <path class="cls-4" d="M938,329.5s-20-50-38,0"/>
  <path class="cls-4" d="M939,307.5s-20-50-38,0"/>
  <path class="cls-4" d="M885,348.5s-20-50-38,0"/>
  <path class="cls-4" d="M885,328.5s-20-50-38,0"/>
  <path class="cls-4" d="M886,306.5s-20-50-38,0"/>
  <path class="cls-4" d="M832,349.5s-20-50-38,0"/>
  <path class="cls-4" d="M832,329.5s-20-50-38,0"/>
  <path class="cls-4" d="M833,307.5s-20-50-38,0"/>
  <path class="cls-4" d="M775,349.5s-20-50-38,0"/>
  <path class="cls-4" d="M775,329.5s-20-50-38,0"/>
  <path class="cls-4" d="M776,307.5s-20-50-38,0"/>
  <path class="cls-4" d="M728,349.5s-20-50-38,0"/>
  <path class="cls-4" d="M728,329.5s-20-50-38,0"/>
  <path class="cls-4" d="M729,307.5s-20-50-38,0"/>
  <path class="cls-5" d="M0,86c449.48,172.48,905,166.19,1366,0v25C902.4,253.63,446.76,259,0,111Z"/>
  <rect class="cls-5" x="368.03" y="115.46" width="9.94" height="166.83" transform="translate(163.8 -168.44) rotate(32.27)"/>
  <rect class="cls-5" x="975.55" y="116.1" width="11.08" height="167.45" transform="translate(47.45 561.47) rotate(-32.69)"/>
  <path class="cls-5" d="M686,275h-8V146h8Z"/>
  <path class="cls-5" d="M1366,267Q665.31,290.65,0,267V240c455.25,43.18,912.52,42.2,1366,0Z"/>
  <ellipse class="cls-6" cx="104" cy="131.52" rx="19.5" ry="14" transform="translate(-54.22 187.03) rotate(-71)"/>
  <ellipse class="cls-6" cx="188.7" cy="155.13" rx="17.2" ry="12.35" transform="matrix(0.33, -0.95, 0.95, 0.33, -19.42, 283.04)"/>
  <ellipse class="cls-6" cx="280.46" cy="174.7" rx="14.97" ry="10.75" transform="translate(23.96 383) rotate(-71)"/>
  <ellipse class="cls-6" cx="1287.36" cy="122.15" rx="14" ry="19.5" transform="translate(-0.15 242.76) rotate(-10.77)"/>
  <ellipse class="cls-6" cx="1202.12" cy="144.71" rx="12.35" ry="17.2" transform="translate(-5.86 227.23) rotate(-10.77)"/>
  <ellipse class="cls-6" cx="1112.75" cy="167.29" rx="10.75" ry="14.97" transform="translate(-11.66 210.92) rotate(-10.77)"/>
  <path d="M1366,372A12967,12967,0,0,0,0,372v68a11670.77,11670.77,0,0,1,1366,0Z"/>
  <g>
    <path class="cls-7" d="M191.83,400.69a3,3,0,0,0-1.13-2.4,11.22,11.22,0,0,0-2.76-1.56c-1.1-.46-2.29-.92-3.57-1.39a16.92,16.92,0,0,1-3.59-1.78,9.46,9.46,0,0,1-2.78-2.75,8.08,8.08,0,0,1-1.17-4.39,10.19,10.19,0,0,1,.7-4.15,8.59,8.59,0,0,1,2.17-3.08,10.65,10.65,0,0,1,3.39-2,17.1,17.1,0,0,1,4.41-1,26.87,26.87,0,0,1,5.31,0,12.28,12.28,0,0,1,4.12,1.08q-.93,2.84-1.87,5.64a10,10,0,0,0-3.06-1,15.77,15.77,0,0,0-4.38-.18,5.79,5.79,0,0,0-3.37,1.17,3,3,0,0,0-1.13,2.47,2.8,2.8,0,0,0,1.13,2.25,11.89,11.89,0,0,0,2.76,1.53c1.1.46,2.29.92,3.58,1.4a17.25,17.25,0,0,1,3.58,1.83,9.62,9.62,0,0,1,2.78,2.83,8.33,8.33,0,0,1,1.18,4.41,11.64,11.64,0,0,1-.76,4.65,8.88,8.88,0,0,1-2.33,3.32,10.1,10.1,0,0,1-3.7,2,17.86,17.86,0,0,1-4.8.78,25.56,25.56,0,0,1-6.1-.44,18.5,18.5,0,0,1-3.89-1.15l1.92-5.48c.34.16.78.34,1.32.53a15.7,15.7,0,0,0,1.83.52,19.63,19.63,0,0,0,2.15.37,15.07,15.07,0,0,0,2.34.09,8.12,8.12,0,0,0,4.28-1.16A3.36,3.36,0,0,0,191.83,400.69Z"/>
    <path class="cls-7" d="M201.89,385.17l4.37-.31.75,2.85h.19a8.5,8.5,0,0,1,2.78-2.92,8.63,8.63,0,0,1,4-1.16c2.89-.2,5.07.62,6.56,2.49s2.27,5,2.35,9.35a21.73,21.73,0,0,1-.57,5.77,12.73,12.73,0,0,1-2,4.41,9.17,9.17,0,0,1-3.27,2.84,11.81,11.81,0,0,1-6.83.94,8.14,8.14,0,0,1-1.85-.64q.09,5,.2,10l-6,.12Q202.24,402,201.89,385.17Zm10.36,3.95a4.11,4.11,0,0,0-2.72,1.1,6.52,6.52,0,0,0-1.48,2.87c.06,3.37.13,6.73.2,10.1a4.77,4.77,0,0,0,3.44,1,4.47,4.47,0,0,0,3.83-2.1c.83-1.33,1.22-3.5,1.16-6.48a10,10,0,0,0-1.12-5A3.35,3.35,0,0,0,212.25,389.12Z"/>
    <path class="cls-7" d="M225.91,396q-.14-6.31,2.66-9.92a10.38,10.38,0,0,1,7.94-4,10.6,10.6,0,0,1,4.81.65,8.43,8.43,0,0,1,3.42,2.51,11.63,11.63,0,0,1,2.09,4.16,21.15,21.15,0,0,1,.78,5.5q.13,6.51-2.63,10.12a9.8,9.8,0,0,1-7.93,3.76,11.11,11.11,0,0,1-4.81-.8,9.17,9.17,0,0,1-3.44-2.57,11.42,11.42,0,0,1-2.12-4.09A20.55,20.55,0,0,1,225.91,396Zm6.17-.3a15.89,15.89,0,0,0,.34,3.05,8.9,8.9,0,0,0,.88,2.43,4.13,4.13,0,0,0,1.49,1.58,3.83,3.83,0,0,0,2.15.49,3.9,3.9,0,0,0,3.46-2c.75-1.29,1.09-3.29,1-6a12.69,12.69,0,0,0-1.18-5.62,3.52,3.52,0,0,0-3.63-1.94,4.13,4.13,0,0,0-3.42,2C232.4,390.9,232,392.9,232.08,395.65Z"/>
    <path class="cls-7" d="M266.12,407.14q-.15-7.44-.29-14.88a9.77,9.77,0,0,0-.9-4.56,2.8,2.8,0,0,0-2.77-1.26,4.15,4.15,0,0,0-2.86,1.27,6.6,6.6,0,0,0-1.63,2.87q.16,8.4.34,16.81l-6,.19q-.27-12.88-.52-25.76l4.75-.3.75,3.38h.19a11.19,11.19,0,0,1,2.75-3.07,7.88,7.88,0,0,1,4.49-1.52,8.07,8.07,0,0,1,3.06.34,5,5,0,0,1,2.29,1.6,8.12,8.12,0,0,1,1.45,3.21,24.32,24.32,0,0,1,.56,5.11q.16,8.19.32,16.39Z"/>
    <path class="cls-7" d="M286.53,399.14a2,2,0,0,0-.81-1.68,8.6,8.6,0,0,0-2-1.1c-.78-.33-1.63-.66-2.56-1a9.11,9.11,0,0,1-2.56-1.44,7.89,7.89,0,0,1-2-2.4,8.35,8.35,0,0,1-.86-3.86,8.46,8.46,0,0,1,1.91-6.08,8.09,8.09,0,0,1,5.81-2.4,16,16,0,0,1,4.76.38,11.81,11.81,0,0,1,3.35,1.27c-.41,1.7-.82,3.41-1.24,5.11a27.29,27.29,0,0,0-2.69-.89,10.16,10.16,0,0,0-3.28-.37c-1.79.09-2.66.94-2.63,2.53a1.78,1.78,0,0,0,.81,1.51,9.92,9.92,0,0,0,2,1l2.56,1a10.16,10.16,0,0,1,2.56,1.42,7.51,7.51,0,0,1,2,2.36,8.39,8.39,0,0,1,.86,3.84,9,9,0,0,1-2.12,6.49c-1.46,1.61-3.68,2.44-6.66,2.53a14.42,14.42,0,0,1-4.6-.58,13.1,13.1,0,0,1-3.51-1.57q.78-2.58,1.56-5.19a14.1,14.1,0,0,0,2.84,1.25,9.64,9.64,0,0,0,3.6.54,3.61,3.61,0,0,0,2.14-.66A2.31,2.31,0,0,0,286.53,399.14Z"/>
    <path class="cls-7" d="M295.22,392.79c-.09-4.57.8-8.12,2.66-10.68a9.91,9.91,0,0,1,7.95-4.12,10.19,10.19,0,0,1,4.81.8,8.73,8.73,0,0,1,3.42,2.76,13,13,0,0,1,2.09,4.49,24.26,24.26,0,0,1,.78,5.89q.13,7-2.63,10.82a9.5,9.5,0,0,1-7.92,4,10.57,10.57,0,0,1-4.82-.89,9.32,9.32,0,0,1-3.44-2.8,12.73,12.73,0,0,1-2.12-4.44A23.49,23.49,0,0,1,295.22,392.79Zm6.18-.25a18.37,18.37,0,0,0,.34,3.29,10.15,10.15,0,0,0,.88,2.63,4.32,4.32,0,0,0,1.49,1.71,3.62,3.62,0,0,0,2.15.56,3.85,3.85,0,0,0,3.47-2.13q1.11-2.07,1-6.43a14.54,14.54,0,0,0-1.18-6,3.57,3.57,0,0,0-3.64-2.16,4,4,0,0,0-3.42,2.12C301.72,387.43,301.34,389.58,301.4,392.54Z"/>
    <path class="cls-7" d="M333.68,384.22a6.61,6.61,0,0,0-2.6-.51,3.91,3.91,0,0,0-2.68,1.13,5.29,5.29,0,0,0-1.4,2.69q.17,8.93.34,17.85l-6,.16q-.25-13.76-.52-27.51l4.66-.22c.25,1.2.51,2.41.76,3.61h.19a7.65,7.65,0,0,1,2.06-3.24,4.88,4.88,0,0,1,3.11-1.25,7.45,7.45,0,0,1,2.73.49C334.11,379.68,333.9,382,333.68,384.22Z"/>
    <path class="cls-7" d="M355.92,402.23a11.05,11.05,0,0,1-3.71,2.38,13.91,13.91,0,0,1-5,1q-5.57.14-8.23-3.72t-2.78-10.69q-.14-7.33,2.7-11.13a10.08,10.08,0,0,1,8.09-4,10.46,10.46,0,0,1,3.43.42,7.28,7.28,0,0,1,3,1.74,9,9,0,0,1,2.14,3.4,16.05,16.05,0,0,1,.88,5.43c0,.79,0,1.63-.06,2.54s-.16,1.84-.3,2.82l-13.79.44a9.21,9.21,0,0,0,1.6,5.25,5.08,5.08,0,0,0,4.42,1.67,7.92,7.92,0,0,0,3.36-.8,8.83,8.83,0,0,0,2.25-1.49C354.55,399.08,355.24,400.66,355.92,402.23ZM347,381.91a4,4,0,0,0-3.43,1.84,9.78,9.78,0,0,0-1.27,4.6l8.53-.29a8.31,8.31,0,0,0-.84-4.63A3.12,3.12,0,0,0,347,381.91Z"/>
    <path class="cls-7" d="M380.36,394.07c0,1.59.08,3.19.13,4.78a50.25,50.25,0,0,0,.51,5.28l-4.28.09-.9-3.67h-.18a8.06,8.06,0,0,1-2.6,3.27,7,7,0,0,1-4.06,1.31,7.66,7.66,0,0,1-6.79-3.35q-2.46-3.44-2.6-10.87c-.09-4.81.74-8.57,2.47-11.31a9,9,0,0,1,7.77-4.29,11.14,11.14,0,0,1,2.36.11A7.93,7.93,0,0,1,374,376q-.09-5.76-.2-11.51l6-.24Q380.1,379.17,380.36,394.07Zm-10.11,4.81a3.72,3.72,0,0,0,2.75-1.12,6.12,6.12,0,0,0,1.38-3.08q-.11-6-.22-12a4.21,4.21,0,0,0-1.44-.89,5.52,5.52,0,0,0-2-.25,4.26,4.26,0,0,0-3.77,2.22q-1.23,2.13-1.13,7.22a13.63,13.63,0,0,0,1.14,5.79A3.42,3.42,0,0,0,370.25,398.88Z"/>
    <path class="cls-7" d="M396.77,363.68l6-.2.24,13.75h.19a7.1,7.1,0,0,1,5.8-3.14,7,7,0,0,1,6.41,3.37q2.25,3.48,2.37,10.73.14,7.76-2.87,11.84a10,10,0,0,1-8.34,4.19,23,23,0,0,1-5.41-.49,14,14,0,0,1-3.71-1.27Q397.11,383.06,396.77,363.68Zm10.58,16.77a3.58,3.58,0,0,0-2.68,1.13,7,7,0,0,0-1.54,3.1q.11,6.26.22,12.5a4.75,4.75,0,0,0,1.6.59,8.92,8.92,0,0,0,1.82.13,4.06,4.06,0,0,0,3.68-2.29c.82-1.48,1.2-3.84,1.14-7.06Q411.46,380.35,407.35,380.45Z"/>
    <path class="cls-7" d="M429.81,390.47l.9,4.48H431c.17-1.52.35-3,.52-4.56l3.24-16.2,6.18-.13q-3.29,13.08-6.58,26.13c-.55,2.17-1.08,4.14-1.59,5.94a29.71,29.71,0,0,1-1.69,4.67,9.93,9.93,0,0,1-2.1,3.06A4,4,0,0,1,426.2,415a6.67,6.67,0,0,1-3.84-.91c.33-2,.67-4,1-6a2.9,2.9,0,0,0,1.38.32,2.81,2.81,0,0,0,2-1.15,8.6,8.6,0,0,0,1.43-4.09q-5.07-14.31-10.13-28.57l7.2-.17Q427.56,382.42,429.81,390.47Z"/>
    <path class="cls-7" d="M466.77,402.49q-.13-7.85-.25-15.69a18.71,18.71,0,0,0-.7-5.64,2.39,2.39,0,0,0-2.51-1.64,3.26,3.26,0,0,0-2.52,1.1,7,7,0,0,0-1.44,2.77q.16,9.6.32,19.21l-6,.09q-.23-14.43-.47-28.85l4.66-.07.75,3.8h.19a12.1,12.1,0,0,1,2.65-3.27,6.24,6.24,0,0,1,4.19-1.44,5.61,5.61,0,0,1,3.64,1.08,7.49,7.49,0,0,1,2.26,3.75,9.8,9.8,0,0,1,2.66-3.61,6.2,6.2,0,0,1,4-1.36,8.6,8.6,0,0,1,3.31.54,4.89,4.89,0,0,1,2.25,2,11.4,11.4,0,0,1,1.33,3.76,35.92,35.92,0,0,1,.51,6l.27,17.26-6,.08q-.12-8.1-.25-16.18A17.17,17.17,0,0,0,479,381a2.45,2.45,0,0,0-2.59-1.67,3.19,3.19,0,0,0-2.54,1.13,7,7,0,0,0-1.36,3l.3,18.9Z"/>
    <path class="cls-7" d="M512.18,371.23a14.91,14.91,0,0,1-.26,3,8.94,8.94,0,0,1-.94,2.72,8,8,0,0,1-1.76,2.18,7,7,0,0,1-2.63,1.41v.34a9.26,9.26,0,0,1,2.63,1,7.07,7.07,0,0,1,2.19,1.87,9.49,9.49,0,0,1,1.49,2.91,13.81,13.81,0,0,1,.59,4.06,12.33,12.33,0,0,1-1,5.35,10.17,10.17,0,0,1-2.78,3.72,11.8,11.8,0,0,1-4,2.15,15.8,15.8,0,0,1-4.64.74l-2,0c-.82,0-1.69,0-2.63-.06s-1.89-.12-2.86-.22a17.54,17.54,0,0,1-2.66-.49l-.63-39.67c.58-.11,1.25-.23,2-.35s1.56-.22,2.42-.3,1.75-.13,2.65-.17,1.81-.06,2.7-.07a22.13,22.13,0,0,1,4.41.43,11.34,11.34,0,0,1,3.86,1.52,8,8,0,0,1,2.74,3A10.72,10.72,0,0,1,512.18,371.23Zm-13.41,7.54c.44,0,.93,0,1.5-.06a10.27,10.27,0,0,0,1.41-.18,7.87,7.87,0,0,0,3-2.06,5,5,0,0,0,1.21-3.57,5.63,5.63,0,0,0-.5-2.44,4.21,4.21,0,0,0-1.24-1.53,4.89,4.89,0,0,0-1.75-.79,9,9,0,0,0-2-.22c-.8,0-1.54,0-2.21.07a11.14,11.14,0,0,0-1.57.17q.07,5.31.17,10.63ZM501.05,396a7.09,7.09,0,0,0,2.19-.37,5.21,5.21,0,0,0,1.86-1.06,5.3,5.3,0,0,0,1.28-1.8,5.93,5.93,0,0,0,.46-2.55,6.31,6.31,0,0,0-.63-2.95,4.57,4.57,0,0,0-1.57-1.66,5.52,5.52,0,0,0-2.14-.75,16.91,16.91,0,0,0-2.36-.16l-3.3,0c.06,3.65.11,7.31.17,11a2.23,2.23,0,0,0,.73.17c.33,0,.68.06,1.06.07L500,396Z"/>
    <path class="cls-7" d="M516.72,387.61c-.08-4.83.82-8.56,2.69-11.16a9.15,9.15,0,0,1,8-3.89,10.2,10.2,0,0,1,4.82,1.09,9.66,9.66,0,0,1,3.41,3.05,14.49,14.49,0,0,1,2.08,4.74,26.25,26.25,0,0,1,.76,6.11c.07,4.79-.81,8.49-2.67,11.09a9.25,9.25,0,0,1-7.94,3.94,10,10,0,0,1-4.81-1,9.64,9.64,0,0,1-3.44-3,14.38,14.38,0,0,1-2.1-4.75A26.55,26.55,0,0,1,516.72,387.61Zm6.18,0a20.55,20.55,0,0,0,.33,3.47,11.44,11.44,0,0,0,.87,2.79,4.75,4.75,0,0,0,1.48,1.84,3.65,3.65,0,0,0,2.16.64,3.72,3.72,0,0,0,3.47-2.12c.75-1.41,1.1-3.62,1-6.65a15.9,15.9,0,0,0-1.16-6.33,3.74,3.74,0,0,0-3.63-2.42,3.79,3.79,0,0,0-3.43,2.05Q522.83,382.92,522.9,387.59Z"/>
    <path class="cls-7" d="M561.22,399.16a11.15,11.15,0,0,1-3.73,2.29,13.8,13.8,0,0,1-5,.95c-3.72,0-6.46-1.28-8.23-3.93s-2.67-6.28-2.75-10.92c-.07-5,.84-8.71,2.74-11.18a9.51,9.51,0,0,1,8.11-3.66,10.79,10.79,0,0,1,3.42.6,7.85,7.85,0,0,1,3,1.88,9.67,9.67,0,0,1,2.13,3.49,16.43,16.43,0,0,1,.86,5.43c0,.79,0,1.63-.07,2.52s-.17,1.83-.3,2.8l-13.79,0a9.52,9.52,0,0,0,1.57,5.35,5.18,5.18,0,0,0,4.42,1.79,7.74,7.74,0,0,0,3.36-.71,9.12,9.12,0,0,0,2.26-1.43C559.85,396,560.53,397.58,561.22,399.16Zm-8.88-20.6a3.75,3.75,0,0,0-3.43,1.7,9.56,9.56,0,0,0-1.29,4.59l8.54,0a8.51,8.51,0,0,0-.83-4.66A3.27,3.27,0,0,0,552.34,378.56Z"/>
    <path class="cls-7" d="M585.5,401.48c.07,4-.8,6.95-2.58,8.86a10,10,0,0,1-7.57,2.93,19.57,19.57,0,0,1-5.24-.5,12.08,12.08,0,0,1-2.9-1.14c.39-1.92.78-3.83,1.16-5.75.71.33,1.54.66,2.48,1a10.75,10.75,0,0,0,3.49.47c2.09,0,3.51-.57,4.24-1.66a7.88,7.88,0,0,0,1.06-4.57c0-.59,0-1.18,0-1.77h-.19q-1.57,2.61-5.68,2.62a7.49,7.49,0,0,1-6.71-3.32q-2.24-3.33-2.35-10.49-.12-7.48,2.78-11.3c1.93-2.55,4.77-3.78,8.52-3.72a25.33,25.33,0,0,1,5.29.58,20.79,20.79,0,0,1,3.82,1.22Q585.31,388.22,585.5,401.48Zm-10.22-5.29a3.63,3.63,0,0,0,2.68-.94,6.12,6.12,0,0,0,1.41-2.82q-.09-6.23-.19-12.45a8,8,0,0,0-3.56-.76,3.88,3.88,0,0,0-3.56,2q-1.26,2.08-1.19,6.64a13.69,13.69,0,0,0,1.2,6.17A3.52,3.52,0,0,0,575.28,396.19Z"/>
    <path class="cls-7" d="M598.49,388.49c.28,1.4.57,2.8.85,4.2h.23c.19-1.43.39-2.86.58-4.29q1.85-7.06,3.7-14.08l6.46.15q-4.62,13.53-9.22,27.27h-3.64Q592.23,388,587,374l7,.13Z"/>
    <path class="cls-7" d="M612.17,376.08a17,17,0,0,1,4.36-1.42,24,24,0,0,1,5.29-.42,10.76,10.76,0,0,1,4,.78,6.46,6.46,0,0,1,2.59,2,7.88,7.88,0,0,1,1.38,2.95,17.13,17.13,0,0,1,.45,3.83c0,1.55,0,3.12-.06,4.69s-.1,3.11-.09,4.63.07,3,.19,4.43a18.62,18.62,0,0,0,.75,4.05h-4.88c-.35-1.23-.69-2.45-1-3.68h-.23a8.79,8.79,0,0,1-2.51,2.84,6.88,6.88,0,0,1-4.2,1.2,7.21,7.21,0,0,1-2.92-.57,6.41,6.41,0,0,1-2.23-1.62,7.59,7.59,0,0,1-1.47-2.48A9.82,9.82,0,0,1,611,394a8.46,8.46,0,0,1,.88-4.17,7,7,0,0,1,2.68-2.71,11.92,11.92,0,0,1,4.22-1.39,25.89,25.89,0,0,1,5.5-.14,8,8,0,0,0-.43-4.3c-.48-.88-1.51-1.34-3.11-1.38a18.22,18.22,0,0,0-3.8.35,12.15,12.15,0,0,0-3.28,1.06Q612.93,378.72,612.17,376.08Zm7.92,20.1a4,4,0,0,0,2.84-.91,6.12,6.12,0,0,0,1.54-2c0-1.15,0-2.31-.05-3.46a14.26,14.26,0,0,0-2.75-.09,8.68,8.68,0,0,0-2.32.45,3.73,3.73,0,0,0-1.6,1.05,2.58,2.58,0,0,0-.57,1.77,3.41,3.41,0,0,0,.8,2.34A2.72,2.72,0,0,0,620.09,396.18Z"/>
    <path class="cls-7" d="M641.6,392.75a6.55,6.55,0,0,0,.46,2.68,1.45,1.45,0,0,0,1.35.85,6.38,6.38,0,0,0,1.08-.09,5.93,5.93,0,0,0,1.31-.46c.24,1.78.49,3.55.73,5.32a10.53,10.53,0,0,1-2.24.83,12.1,12.1,0,0,1-3.13.4,5.47,5.47,0,0,1-4-1.41q-1.41-1.39-1.46-4.61-.25-15.81-.5-31.64l6,.26Q641.39,378.83,641.6,392.75Z"/>
    <path class="cls-7" d="M668.56,392.79q0,2.13.12,4.26a37.89,37.89,0,0,0,.49,4.72l-4.29,0c-.29-1.11-.59-2.22-.88-3.32h-.19a7.11,7.11,0,0,1-2.6,2.87,7.35,7.35,0,0,1-4.06,1.07,8.07,8.07,0,0,1-6.78-3.24c-1.63-2.16-2.49-5.54-2.56-10.11s.76-7.87,2.51-10.27,4.33-3.53,7.77-3.39a11.8,11.8,0,0,1,2.35.27,8.56,8.56,0,0,1,1.85.66c0-3.46-.11-6.93-.17-10.39l6,.31Q668.34,379.51,668.56,392.79Zm-10.12,3.92a3.77,3.77,0,0,0,2.75-.91,5.06,5.06,0,0,0,1.38-2.71l-.18-10.84a4.68,4.68,0,0,0-1.44-.89,6.4,6.4,0,0,0-2-.35,4.06,4.06,0,0,0-3.77,1.79c-.83,1.25-1.21,3.43-1.16,6.53a11.82,11.82,0,0,0,1.12,5.33A3.59,3.59,0,0,0,658.44,396.71Z"/>
    <path class="cls-7" d="M673.21,398.43a3.67,3.67,0,0,1,1-2.78,3.44,3.44,0,0,1,2.65-1,3.84,3.84,0,0,1,2.79,1.08,3.91,3.91,0,0,1,1.06,2.79,3.73,3.73,0,0,1-1,2.78,3.58,3.58,0,0,1-2.74,1,3.65,3.65,0,0,1-2.7-1.08A4,4,0,0,1,673.21,398.43Z"/>
    <path class="cls-7" d="M704.72,393.61c0,1.35.07,2.7.12,4a36.41,36.41,0,0,0,.5,4.49l-4.28-.05c-.3-1.06-.6-2.11-.89-3.17H700a6.9,6.9,0,0,1-2.6,2.71,7.54,7.54,0,0,1-4,1,8.25,8.25,0,0,1-6.79-3.13c-1.63-2.06-2.49-5.3-2.56-9.67s.76-7.51,2.5-9.78,4.33-3.32,7.76-3.15a13.28,13.28,0,0,1,2.36.29,9.29,9.29,0,0,1,1.85.65l-.18-9.89,6,.39Q704.49,381,704.72,393.61Zm-10.11,3.66a3.94,3.94,0,0,0,2.75-.85,4.79,4.79,0,0,0,1.38-2.58c-.06-3.43-.13-6.87-.19-10.31a4.92,4.92,0,0,0-1.44-.86,6.45,6.45,0,0,0-2-.35,4.06,4.06,0,0,0-3.77,1.67c-.82,1.18-1.21,3.25-1.15,6.21a10.87,10.87,0,0,0,1.12,5.09A3.65,3.65,0,0,0,694.61,397.27Z"/>
    <path class="cls-7" d="M717.54,392.49l-1.61-.05c.06,3.27.13,6.53.19,9.79l-6-.08q-.32-16.71-.63-33.46l6,.41q.19,9.78.38,19.56l1.37-.61q2.52-4.6,5.06-9.11l6.58.37q-2.67,4.23-5.35,8.56l-2.31,1.69,2.57,1.92q3.21,5.53,6.43,11l-6.86-.1Q720.44,397.47,717.54,392.49Z"/>
  </g>
  <g>
    <path class="cls-7" d="M869.7,392.93a3,3,0,0,0-1-2.45,11,11,0,0,0-2.65-1.68c-1.07-.49-2.23-1-3.48-1.52a16.89,16.89,0,0,1-3.46-1.93,9.3,9.3,0,0,1-2.6-2.87,8.08,8.08,0,0,1-.89-4.46,10.51,10.51,0,0,1,.94-4.14,8.78,8.78,0,0,1,2.35-3,10.56,10.56,0,0,1,3.5-1.9,16.71,16.71,0,0,1,4.43-.78,25.78,25.78,0,0,1,5.27.25,12.16,12.16,0,0,1,4,1.28L874,375.28a10,10,0,0,0-3-1.1,16.45,16.45,0,0,0-4.35-.38,5.93,5.93,0,0,0-3.42,1,3.13,3.13,0,0,0-1.26,2.44,2.75,2.75,0,0,0,1,2.3,11.59,11.59,0,0,0,2.65,1.65c1.07.51,2.22,1,3.48,1.56a16.61,16.61,0,0,1,3.46,2,9.61,9.61,0,0,1,2.6,2.95,8.33,8.33,0,0,1,.91,4.45,11.72,11.72,0,0,1-1,4.6,9.23,9.23,0,0,1-2.52,3.22,10.39,10.39,0,0,1-3.81,1.88,18,18,0,0,1-4.83.6,25.74,25.74,0,0,1-6.05-.66,17.86,17.86,0,0,1-3.81-1.29l2.24-5.43a10.23,10.23,0,0,0,1.29.59,16.35,16.35,0,0,0,1.79.59,20.79,20.79,0,0,0,2.12.45,13.55,13.55,0,0,0,2.32.17,8.17,8.17,0,0,0,4.34-1A3.45,3.45,0,0,0,869.7,392.93Z"/>
    <path class="cls-7" d="M880.63,377.85l4.37-.12c.2,1,.39,1.93.58,2.89h.19a8.56,8.56,0,0,1,2.93-2.78,8.7,8.7,0,0,1,4-1c2.89-.06,5,.86,6.39,2.79s2,5.08,1.81,9.42a22.24,22.24,0,0,1-.9,5.7,12.75,12.75,0,0,1-2.21,4.3,9.47,9.47,0,0,1-3.41,2.67,11.9,11.9,0,0,1-6.87.64,7.43,7.43,0,0,1-1.81-.72q-.19,5-.38,9.91l-6-.12Q880,394.68,880.63,377.85Zm10.09,4.42a4.06,4.06,0,0,0-2.77,1A6.47,6.47,0,0,0,886.3,386c-.13,3.36-.26,6.71-.38,10.07a5,5,0,0,0,1.37.85,5.2,5.2,0,0,0,2,.32,4.53,4.53,0,0,0,3.94-1.92q1.37-1.94,1.53-6.39a9.85,9.85,0,0,0-.83-5A3.26,3.26,0,0,0,890.72,382.27Z"/>
    <path class="cls-7" d="M903.93,389.7q.23-6.29,3.2-9.73a10.46,10.46,0,0,1,8.14-3.54,10.72,10.72,0,0,1,4.75.9,8.36,8.36,0,0,1,3.27,2.67,11.52,11.52,0,0,1,1.85,4.23,20.71,20.71,0,0,1,.47,5.48q-.23,6.45-3.18,9.88a9.93,9.93,0,0,1-8.12,3.34,11.13,11.13,0,0,1-4.75-1,9,9,0,0,1-3.29-2.7,11.1,11.1,0,0,1-1.87-4.16A19.4,19.4,0,0,1,903.93,389.7Zm6.16,0a15.53,15.53,0,0,0,.17,3,8.71,8.71,0,0,0,.74,2.45,4.09,4.09,0,0,0,1.39,1.64,3.82,3.82,0,0,0,2.12.59,3.93,3.93,0,0,0,3.57-1.83,11.74,11.74,0,0,0,1.36-5.89,12.34,12.34,0,0,0-.86-5.62,3.49,3.49,0,0,0-3.51-2.11,4.16,4.16,0,0,0-3.52,1.83C910.68,385,910.19,387,910.09,389.69Z"/>
    <path class="cls-7" d="M943.4,402.75l.51-14.69a9.26,9.26,0,0,0-.65-4.55,2.79,2.79,0,0,0-2.69-1.4,4.19,4.19,0,0,0-2.92,1.11,6.48,6.48,0,0,0-1.77,2.74q-.3,8.32-.59,16.62l-6-.11q.45-12.74.9-25.5l4.74,0,.57,3.39h.19a10.93,10.93,0,0,1,2.91-2.88,7.79,7.79,0,0,1,4.55-1.26,8.16,8.16,0,0,1,3,.5,4.87,4.87,0,0,1,2.19,1.71,7.92,7.92,0,0,1,1.27,3.25,23.46,23.46,0,0,1,.29,5.08q-.29,8.09-.56,16.17Z"/>
    <path class="cls-7" d="M964.2,396a2,2,0,0,0-.73-1.7,8.89,8.89,0,0,0-1.89-1.19c-.76-.37-1.59-.74-2.5-1.12a9,9,0,0,1-2.48-1.55,7.79,7.79,0,0,1-1.85-2.48,8.15,8.15,0,0,1-.66-3.85,8.31,8.31,0,0,1,2.23-5.9,8.14,8.14,0,0,1,5.92-2,16.39,16.39,0,0,1,4.73.65,12,12,0,0,1,3.27,1.45l-1.51,5a27,27,0,0,0-2.63-1,10.42,10.42,0,0,0-3.26-.55c-1.78,0-2.7.77-2.75,2.35a1.76,1.76,0,0,0,.73,1.53,10,10,0,0,0,1.9,1.1l2.5,1.11a10.36,10.36,0,0,1,2.48,1.53,7.57,7.57,0,0,1,1.85,2.44,8.11,8.11,0,0,1,.66,3.83,8.79,8.79,0,0,1-2.45,6.27c-1.54,1.49-3.81,2.19-6.78,2.12a14.64,14.64,0,0,1-4.56-.83,13.18,13.18,0,0,1-3.43-1.72c.62-1.68,1.23-3.35,1.84-5a15.31,15.31,0,0,0,2.76,1.38,10,10,0,0,0,3.57.73,3.58,3.58,0,0,0,2.16-.53A2.24,2.24,0,0,0,964.2,396Z"/>
    <path class="cls-7" d="M973.2,390.21q.22-6.73,3.2-10.36a9.84,9.84,0,0,1,8.14-3.57,10.2,10.2,0,0,1,4.76,1.07,8.83,8.83,0,0,1,3.27,2.92,12.92,12.92,0,0,1,1.86,4.53,24.06,24.06,0,0,1,.47,5.84q-.23,6.84-3.18,10.45a9.5,9.5,0,0,1-8.12,3.44,10.71,10.71,0,0,1-4.76-1.15,9.39,9.39,0,0,1-3.29-2.94,12.52,12.52,0,0,1-1.88-4.49A22.76,22.76,0,0,1,973.2,390.21Zm6.17.11a17.9,17.9,0,0,0,.17,3.26,10.06,10.06,0,0,0,.74,2.63,4.37,4.37,0,0,0,1.39,1.77,3.74,3.74,0,0,0,2.13.67,3.82,3.82,0,0,0,3.56-1.89c.81-1.31,1.27-3.39,1.37-6.26a14.32,14.32,0,0,0-.86-6,3.59,3.59,0,0,0-3.52-2.33,4,4,0,0,0-3.52,1.87Q979.53,385.95,979.37,390.32Z"/>
    <path class="cls-7" d="M1012,384.08a6.61,6.61,0,0,0-2.56-.65,3.83,3.83,0,0,0-2.73.94,5.05,5.05,0,0,0-1.54,2.55q-.28,8.76-.58,17.52l-6-.19.9-27,4.65.08.57,3.59h.19a7.58,7.58,0,0,1,2.22-3.05,4.9,4.9,0,0,1,3.17-1,7.57,7.57,0,0,1,2.7.66C1012.67,379.66,1012.33,381.87,1012,384.08Z"/>
    <path class="cls-7" d="M1033.28,403.1a10.84,10.84,0,0,1-3.83,2.09,13.79,13.79,0,0,1-5.07.72q-5.58-.21-8-4.15t-2.23-10.64q.23-7.2,3.26-10.74a10,10,0,0,1,8.27-3.44,10.94,10.94,0,0,1,3.4.63,7.48,7.48,0,0,1,2.89,1.89,9.13,9.13,0,0,1,2,3.47,15.63,15.63,0,0,1,.61,5.37c0,.78-.09,1.6-.2,2.48s-.25,1.8-.43,2.75q-6.9-.22-13.79-.43a9,9,0,0,0,1.33,5.24,5.19,5.19,0,0,0,4.32,1.91,8.09,8.09,0,0,0,3.4-.57,8.94,8.94,0,0,0,2.32-1.33Q1032.38,400.74,1033.28,403.1Zm-7.88-20.45a3.9,3.9,0,0,0-3.52,1.59,9.24,9.24,0,0,0-1.5,4.43l8.53.24a8.14,8.14,0,0,0-.61-4.59A3.16,3.16,0,0,0,1025.4,382.65Z"/>
    <path class="cls-7" d="M1058.09,396.66c0,1.56-.09,3.12-.11,4.68a46.45,46.45,0,0,0,.25,5.19l-4.29-.18c-.24-1.21-.47-2.43-.71-3.64h-.18a7.76,7.76,0,0,1-2.76,3,7,7,0,0,1-4.12,1,7.82,7.82,0,0,1-6.61-3.7q-2.28-3.51-2-10.8.24-7.06,3-10.91a8.93,8.93,0,0,1,8-3.7,11,11,0,0,1,2.35.26,8.27,8.27,0,0,1,1.82.69q.19-5.62.37-11.28l6,.17Zm-10.33,4.06a3.72,3.72,0,0,0,2.8-.92,5.83,5.83,0,0,0,1.52-2.92l.39-11.77a4.41,4.41,0,0,0-1.4-1,5.78,5.78,0,0,0-2-.37,4.19,4.19,0,0,0-3.87,1.93q-1.34,2-1.5,7a13.45,13.45,0,0,0,.85,5.74A3.48,3.48,0,0,0,1047.76,400.72Z"/>
    <path class="cls-7" d="M1076,368l6,.21q-.23,6.72-.44,13.45h.18a7,7,0,0,1,2.56-2,7.22,7.22,0,0,1,3.39-.65,7.12,7.12,0,0,1,6.23,3.71q2.07,3.56,1.84,10.63c-.16,5.06-1.32,8.85-3.44,11.38a9.93,9.93,0,0,1-8.54,3.54,23.07,23.07,0,0,1-5.38-.83,13.87,13.87,0,0,1-3.64-1.48Q1075.35,387,1076,368Zm9.73,17.08a3.65,3.65,0,0,0-2.73.93,6.6,6.6,0,0,0-1.69,2.93q-.21,6.12-.4,12.22a4.68,4.68,0,0,0,1.57.68,9.3,9.3,0,0,0,1.81.25,4,4,0,0,0,3.78-2c.9-1.4,1.39-3.67,1.5-6.81Q1089.8,385.28,1085.7,385.1Z"/>
    <path class="cls-7" d="M1107.62,396.36l.69,4.43h.27l.75-4.42q2-7.8,4-15.6l6.18.29q-3.93,12.54-7.85,25.06c-.66,2.08-1.28,4-1.88,5.69a29.07,29.07,0,0,1-1.92,4.45,9.87,9.87,0,0,1-2.24,2.85,4.07,4.07,0,0,1-2.83.9,6.92,6.92,0,0,1-3.79-1.14c.43-1.93.87-3.86,1.3-5.79a3.21,3.21,0,0,0,1.37.4,2.78,2.78,0,0,0,2.09-1,8.14,8.14,0,0,0,1.63-3.89q-4.35-14.3-8.7-28.55l7.19.31Q1105.77,388.36,1107.62,396.36Z"/>
    <path class="cls-7" d="M1143.94,410.5q.27-7.65.52-15.32a17.92,17.92,0,0,0-.41-5.55,2.47,2.47,0,0,0-2.44-1.76,3.27,3.27,0,0,0-2.57.91,6.62,6.62,0,0,0-1.56,2.6l-.63,18.76-6-.3q.47-14.08.94-28.17l4.66.24c.18,1.25.37,2.5.56,3.75h.19a11.49,11.49,0,0,1,2.8-3,6.33,6.33,0,0,1,4.26-1.13,5.86,5.86,0,0,1,3.59,1.29,7.48,7.48,0,0,1,2.06,3.81,9.3,9.3,0,0,1,2.84-3.34,6.28,6.28,0,0,1,4-1.08,9,9,0,0,1,3.28.75,4.9,4.9,0,0,1,2.15,2.06,10.93,10.93,0,0,1,1.14,3.76,33.54,33.54,0,0,1,.21,5.86l-.57,16.86-6-.31.54-15.81a16.32,16.32,0,0,0-.41-5,2.48,2.48,0,0,0-2.5-1.79,3.19,3.19,0,0,0-2.6.93,6.74,6.74,0,0,0-1.5,2.85l-.63,18.46Z"/>
    <path class="cls-7" d="M1190.83,382.92a13.59,13.59,0,0,1-.4,2.89,8.78,8.78,0,0,1-1.07,2.59,7.91,7.91,0,0,1-1.86,2,7.07,7.07,0,0,1-2.71,1.21c0,.11,0,.22,0,.33a9.82,9.82,0,0,1,2.58,1.11,7,7,0,0,1,2.09,2,9.43,9.43,0,0,1,1.35,2.93,13.61,13.61,0,0,1,.39,4,11.9,11.9,0,0,1-1.24,5.16,9.88,9.88,0,0,1-3,3.45,11.75,11.75,0,0,1-4.1,1.85,15.9,15.9,0,0,1-4.68.42l-2-.1c-.81-.05-1.69-.12-2.62-.23s-1.89-.24-2.85-.4a17.78,17.78,0,0,1-2.63-.64l1.32-38.74c.59-.07,1.26-.15,2-.21s1.57-.11,2.43-.14,1.75,0,2.66,0,1.8.05,2.7.11a23.4,23.4,0,0,1,4.38.7,11.46,11.46,0,0,1,3.78,1.72,8,8,0,0,1,2.59,3.14A10.16,10.16,0,0,1,1190.83,382.92Zm-12.34,23.49a6.81,6.81,0,0,0,2.21-.21,5.21,5.21,0,0,0,1.91-.92,4.9,4.9,0,0,0,1.37-1.67,5.76,5.76,0,0,0,.59-2.47,6,6,0,0,0-.49-2.91,4.53,4.53,0,0,0-1.48-1.72,5.42,5.42,0,0,0-2.11-.87,15.61,15.61,0,0,0-2.34-.3l-3.3-.19q-.19,5.36-.37,10.71a2.23,2.23,0,0,0,.72.21c.33.05.68.1,1.06.14l1.17.12C1177.84,406.37,1178.19,406.4,1178.49,406.41Zm-1.42-17q.65,0,1.5,0a10.52,10.52,0,0,0,1.41-.09,7.76,7.76,0,0,0,3.09-1.81,4.72,4.72,0,0,0,1.39-3.41,5.48,5.48,0,0,0-.38-2.41,4,4,0,0,0-1.17-1.57,4.83,4.83,0,0,0-1.7-.88,9.37,9.37,0,0,0-2-.35c-.8-.05-1.54-.07-2.22-.08a10.75,10.75,0,0,0-1.57.08l-.36,10.37Z"/>
    <path class="cls-7" d="M1194.56,399.2c.17-4.72,1.24-8.3,3.24-10.73a9.17,9.17,0,0,1,8.15-3.3,10.54,10.54,0,0,1,4.76,1.37,9.81,9.81,0,0,1,3.26,3.18,14.28,14.28,0,0,1,1.84,4.75,25.65,25.65,0,0,1,.46,6q-.26,7-3.22,10.66a9.21,9.21,0,0,1-8.13,3.36,10.48,10.48,0,0,1-4.75-1.31,9.74,9.74,0,0,1-3.28-3.17,13.64,13.64,0,0,1-1.87-4.77A26,26,0,0,1,1194.56,399.2Zm6.18.36a19.65,19.65,0,0,0,.15,3.41,11.15,11.15,0,0,0,.74,2.78,4.62,4.62,0,0,0,1.39,1.89,3.95,3.95,0,0,0,5.69-1.1q1.23-2,1.38-6.42a15.45,15.45,0,0,0-.84-6.25,3.8,3.8,0,0,0-3.51-2.59,3.76,3.76,0,0,0-3.53,1.79C1201.34,394.35,1200.84,396.52,1200.74,399.56Z"/>
    <path class="cls-7" d="M1238.44,413.21a10.67,10.67,0,0,1-3.84,2,13.77,13.77,0,0,1-5.07.63q-5.58-.3-8-4.34t-2.2-10.84q.26-7.29,3.29-10.75a9.51,9.51,0,0,1,8.28-3.08,11.13,11.13,0,0,1,3.4.78,8.06,8.06,0,0,1,2.88,2,9.33,9.33,0,0,1,1.95,3.53,15.7,15.7,0,0,1,.59,5.36c0,.77-.09,1.59-.2,2.46s-.26,1.77-.44,2.71l-13.78-.84a9.25,9.25,0,0,0,1.31,5.33,5.33,5.33,0,0,0,4.32,2,8,8,0,0,0,3.4-.49,8.6,8.6,0,0,0,2.32-1.27Zm-7.83-20.66a3.76,3.76,0,0,0-3.52,1.45,9.14,9.14,0,0,0-1.51,4.4l8.52.54a8.07,8.07,0,0,0-.59-4.6A3.32,3.32,0,0,0,1230.61,392.55Z"/>
    <path class="cls-7" d="M1262.59,416.91q-.22,5.88-3,8.53c-1.88,1.77-4.44,2.58-7.7,2.42a19.88,19.88,0,0,1-5.21-.8,12.26,12.26,0,0,1-2.84-1.29l1.45-5.56a23.79,23.79,0,0,0,2.43,1.11,10.57,10.57,0,0,0,3.46.67q3.13.17,4.32-1.37a7.61,7.61,0,0,0,1.29-4.42l.06-1.73h-.18c-1.14,1.64-3.07,2.38-5.81,2.23a7.59,7.59,0,0,1-6.53-3.64q-2.08-3.41-1.82-10.4.26-7.32,3.34-10.88c2.06-2.38,5-3.42,8.71-3.15a25.87,25.87,0,0,1,5.26.87,19.42,19.42,0,0,1,3.76,1.41Q1263.06,403.89,1262.59,416.91Zm-9.95-5.78a3.62,3.62,0,0,0,2.73-.77,5.83,5.83,0,0,0,1.55-2.67l.45-12.19a8.31,8.31,0,0,0-3.53-.95,3.89,3.89,0,0,0-3.66,1.8q-1.37,1.95-1.53,6.42a13.22,13.22,0,0,0,.89,6.11A3.55,3.55,0,0,0,1252.64,411.13Z"/>
    <path class="cls-7" d="M1276.23,404.9c.21,1.39.43,2.78.63,4.17h.24c.26-1.39.53-2.79.8-4.18q2.2-6.81,4.43-13.58l6.45.48q-5.33,13-10.63,26.23l-3.64-.2q-4.5-13.8-9-27.76l7,.51Q1274.35,397.77,1276.23,404.9Z"/>
    <path class="cls-7" d="M1290.56,393.48a16.89,16.89,0,0,1,4.43-1.18,24.7,24.7,0,0,1,5.32-.14,10.81,10.81,0,0,1,4,1,6.41,6.41,0,0,1,2.49,2,7.6,7.6,0,0,1,1.23,3,16.71,16.71,0,0,1,.25,3.78c-.06,1.52-.17,3.06-.32,4.6s-.26,3.05-.33,4.54-.09,2.95,0,4.36a18.58,18.58,0,0,0,.54,4l-4.88-.27c-.28-1.22-.56-2.44-.83-3.66l-.24,0a8.57,8.57,0,0,1-2.66,2.67,7,7,0,0,1-4.26.95,7.54,7.54,0,0,1-2.88-.71,6.42,6.42,0,0,1-2.15-1.71,7.43,7.43,0,0,1-1.34-2.52,9.45,9.45,0,0,1-.39-3.18,8.08,8.08,0,0,1,1.1-4,6.91,6.91,0,0,1,2.82-2.52,11.85,11.85,0,0,1,4.29-1.14,26.57,26.57,0,0,1,5.51.13,7.7,7.7,0,0,0-.21-4.24c-.42-.88-1.44-1.39-3-1.5a18.46,18.46,0,0,0-3.82.14,12.11,12.11,0,0,0-3.33.88Q1291.17,396.09,1290.56,393.48Zm6.86,20.12a4.17,4.17,0,0,0,2.9-.75A6.19,6.19,0,0,0,1302,411l.12-3.41a14.48,14.48,0,0,0-2.73-.22,8.78,8.78,0,0,0-2.35.32,3.73,3.73,0,0,0-1.65.95,2.44,2.44,0,0,0-.66,1.7,3.27,3.27,0,0,0,.67,2.34A2.79,2.79,0,0,0,1297.42,413.6Z"/>
    <path class="cls-7" d="M1319.12,411.31a6.27,6.27,0,0,0,.31,2.65,1.42,1.42,0,0,0,1.31.9,5.53,5.53,0,0,0,1.08,0,6,6,0,0,0,1.33-.39l.45,5.27a11,11,0,0,1-2.29.71,11.84,11.84,0,0,1-3.15.24,5.55,5.55,0,0,1-4-1.58q-1.32-1.45-1.2-4.62.59-15.56,1.18-31.08l6,.53Z"/>
    <path class="cls-7" d="M1346.08,412.58c-.06,1.4-.1,2.8-.12,4.21a39.69,39.69,0,0,0,.23,4.68l-4.28-.23c-.24-1.1-.47-2.21-.7-3.31H1341a7.16,7.16,0,0,1-2.76,2.7,7.4,7.4,0,0,1-4.12.88,8.07,8.07,0,0,1-6.6-3.52c-1.51-2.2-2.19-5.57-2-10.07s1.19-7.71,3.06-10,4.53-3.27,8-3a13.07,13.07,0,0,1,2.34.37,9,9,0,0,1,1.82.73c.13-3.41.27-6.81.4-10.22l6,.55ZM1335.74,416a3.91,3.91,0,0,0,2.8-.78,5.08,5.08,0,0,0,1.54-2.61q.2-5.36.41-10.69a4.94,4.94,0,0,0-1.39-.94,6.7,6.7,0,0,0-2-.43,4.13,4.13,0,0,0-3.87,1.6c-.9,1.19-1.4,3.31-1.52,6.37a11.51,11.51,0,0,0,.84,5.3A3.54,3.54,0,0,0,1335.74,416Z"/>
    <path class="cls-7" d="M1350.42,418.34a3.7,3.7,0,0,1,1.12-2.7,3.53,3.53,0,0,1,2.71-.87A3.85,3.85,0,0,1,1357,416a4.28,4.28,0,0,1-.22,5.52,3.71,3.71,0,0,1-2.8.9,3.61,3.61,0,0,1-2.63-1.18A3.94,3.94,0,0,1,1350.42,418.34Z"/>
    <path class="cls-7" d="M1382.23,414.81c0,1.33-.09,2.67-.12,4a36.11,36.11,0,0,0,.24,4.47l-4.28-.21c-.24-1.05-.47-2.11-.71-3.17h-.18a7,7,0,0,1-2.76,2.59,7.66,7.66,0,0,1-4.12.84,8.14,8.14,0,0,1-6.6-3.37q-2.28-3.16-2-9.67c.17-4.19,1.19-7.39,3.06-9.56s4.52-3.11,8-2.83a14,14,0,0,1,2.34.37,8.9,8.9,0,0,1,1.82.71l.39-9.77,6,.58Q1382.73,402.27,1382.23,414.81Zm-10.33,3.25a4,4,0,0,0,2.8-.74,4.74,4.74,0,0,0,1.53-2.5c.13-3.4.27-6.81.41-10.21a4.53,4.53,0,0,0-1.4-.9,6.31,6.31,0,0,0-2-.42,4.17,4.17,0,0,0-3.87,1.51c-.9,1.13-1.4,3.17-1.52,6.09a10.68,10.68,0,0,0,.84,5.09A3.55,3.55,0,0,0,1371.9,418.06Z"/>
  </g>
  <rect class="cls-8" y="486" width="1366" height="14"/>
  <rect class="cls-9" x="378" y="266" width="607" height="16"/>
  <rect class="cls-9" x="969" y="266" width="16" height="226"/>
  <rect class="cls-9" x="952.25" y="432.74" width="7.96" height="63.6" transform="translate(-82.67 690.09) rotate(-38.16)"/>
  <rect class="cls-9" x="425" y="437" width="515" height="6"/>
  <rect class="cls-9" x="935" y="300" width="5" height="142"/>
  <rect class="cls-9" x="951.01" y="273.27" width="4.16" height="39.37" transform="translate(730.25 -678.92) rotate(60)"/>
  <rect class="cls-9" x="378" y="267" width="16" height="226" transform="translate(772 760) rotate(180)"/>
  <rect class="cls-9" x="402.8" y="433.74" width="7.96" height="63.6" transform="translate(438.98 1082.92) rotate(-141.84)"/>
  <rect class="cls-9" x="423" y="301" width="5" height="142" transform="translate(851 744) rotate(180)"/>
  <rect class="cls-9" x="407.83" y="274.27" width="4.16" height="39.37" transform="translate(869.44 85.94) rotate(120)"/>
  <rect class="cls-9" x="423" y="300" width="514" height="5"/>
  <polygon class="cls-10" points="225 493.5 157 609 1208 609 1154 493.5 225 493.5"/>
  <ellipse class="cls-8" cx="683" cy="665.5" rx="12" ry="5.5"/>
  <path class="cls-11" d="M116-6S69,128,682,148c0,0,565-9,566-154Z"/>
</svg>
