<svg xmlns="http://www.w3.org/2000/svg" viewBox="0 0 3500 2000">
  <defs>
    <style>
      .cls-1 {
        fill: #f98282;
      }

      .cls-2 {
        fill: #d3bb0f;
      }

      .cls-3 {
        fill: #87781e;
      }

      .cls-4 {
        fill: none;
        stroke: #000;
        stroke-miterlimit: 10;
      }

      .cls-5 {
        fill: #8ecc7a;
      }

      .cls-6 {
        fill: #7accc4;
      }

      .cls-7 {
        fill: #7a98cc;
      }

      .cls-8 {
        fill: #a27acc;
      }

      .cls-9 {
        fill: #cc7ac2;
      }

      .cls-10 {
        fill: #383132;
      }

      .cls-11 {
        fill: #5247bf;
      }
    </style>
  </defs>
  <title>shooter_sprite1</title>
  <g id="Layer_1" data-name="Layer 1">
    <rect class="cls-1" width="350" height="500"/>
    <path class="cls-2" d="M179.9,287.07V331.3s-35.28,31.81-48.7,39.26c0,0,14.41,12.92,13.42,22.37s-27.34,3.47-27.34-7.46l-9.94-19.88S157,335.77,160,329.81s4-45.23,4-45.23Z"/>
    <path class="cls-3" d="M186.86,288.06l21.37,48.71,11.43,60.86,40.76-2.22s13.42-24.85-27.34-16.4l-10.43-41.75-24.36-49.2Z"/>
    <g>
      <ellipse class="cls-2" cx="187.69" cy="200.49" rx="93.66" ry="84.33" transform="translate(-62.66 313.39) rotate(-71.16)"/>
      <path class="cls-4" d="M248.81,260.84c-46.19-76.16,21.59-88.93,21.59-88.93"/>
      <ellipse cx="264.17" cy="228.69" rx="11.31" ry="4.5" transform="translate(-23.36 427.21) rotate(-75.51)"/>
      <path class="cls-4" d="M234.18,202.8c-24.49,7.46-49.85-18.13-49.85-18.13"/>
      <path class="cls-4" d="M237.16,272.46s7.51-23.79-15.83-15.46-21.49-13.33-12.07-17"/>
    </g>
  </g>
  <g id="Layer_2" data-name="Layer 2">
    <rect class="cls-5" x="350" width="350" height="500"/>
    <path class="cls-2" d="M514.06,275.9l3.29,68.35-51.92,11.83s12.44,69.46,26,30.23c0,0-1-15.77-8.22-21l51.27-11.83-6.58-77.55Z"/>
    <path class="cls-3" d="M543,287.38v53.24l-16.38,55.51c3.08,2.81,96.71,6.43,53.1-19.36l-29.33,1.31,7.1-36.33-4.14-61.6Z"/>
    <g>
      <ellipse class="cls-2" cx="538" cy="197.88" rx="93.66" ry="84.33" transform="translate(177 643.17) rotate(-71.16)"/>
      <path class="cls-4" d="M599.12,258.24c-46.18-76.16,21.6-88.94,21.6-88.94"/>
      <ellipse cx="614.48" cy="226.08" rx="11.31" ry="4.5" transform="translate(241.79 764.42) rotate(-75.51)"/>
      <path class="cls-4" d="M584.49,200.2c-24.49,7.46-49.84-18.14-49.84-18.14"/>
      <path class="cls-4" d="M587.47,269.86s7.51-23.8-15.82-15.46-21.49-13.34-12.08-17"/>
    </g>
  </g>
  <g id="Layer_3" data-name="Layer 3">
    <rect class="cls-6" x="700" width="350" height="500"/>
    <path class="cls-3" d="M858.41,267.1,864.32,320l-32.86,77.85s53.43,2.33,54.32-4.9-7.65-17.09-31.31-11.83l21-57.84-5.26-53.48Z"/>
    <g>
      <ellipse class="cls-2" cx="887.3" cy="188.91" rx="93.66" ry="84.33" transform="translate(422 967.69) rotate(-71.16)"/>
      <path class="cls-4" d="M948.43,249.27C902.24,173.11,970,160.33,970,160.33"/>
      <ellipse cx="963.78" cy="217.11" rx="11.31" ry="4.5" transform="matrix(0.25, -0.97, 0.97, 0.25, 512.35, 1095.88)"/>
      <path class="cls-4" d="M933.79,191.22C909.3,198.69,884,173.09,884,173.09"/>
      <path class="cls-4" d="M936.77,260.89s7.51-23.8-15.82-15.46-21.49-13.34-12.08-17"/>
    </g>
    <path class="cls-2" d="M890.61,279.92l11.55,28.92L858.65,324s10.27,36.81,20.46,44,18.73-19.39,0-37.3l39.43-15.28-20.69-44.54Z"/>
  </g>
  <g id="Layer_4" data-name="Layer 4">
    <rect class="cls-7" x="1050" width="350" height="500"/>
    <path class="cls-3" d="M1219.44,290.34l-7.88,53.45-31.11,39.44s58.71,35,39,1.75L1202,374.9l19.66-26.29,6.14-58.27Z"/>
    <g>
      <ellipse class="cls-2" cx="1237" cy="202.4" rx="93.66" ry="84.33" transform="translate(646.02 1307.78) rotate(-71.16)"/>
      <path class="cls-4" d="M1298.12,262.75c-46.18-76.16,21.6-88.94,21.6-88.94"/>
      <ellipse cx="1313.48" cy="230.6" rx="11.31" ry="4.5" transform="translate(761.47 1444.55) rotate(-75.51)"/>
      <path class="cls-4" d="M1283.49,204.71c-24.49,7.46-49.84-18.13-49.84-18.13"/>
      <path class="cls-4" d="M1286.47,274.37s7.51-23.79-15.82-15.46-21.49-13.33-12.08-17"/>
    </g>
    <path class="cls-2" d="M1238.72,293.85l29.58,28.91-29.58,28.05s16.65,25.41,27.61,21.9-2.2-22.78-9.64-25l27.6-26.29-35.7-31.11Z"/>
  </g>
  <g id="Layer_5" data-name="Layer 5">
    <rect class="cls-8" x="1399.54" width="350" height="500"/>
    <path class="cls-3" d="M1567.14,272.87c-.43,1.76-15.33,57-15.33,57l-36.37,31.55s37.68,52.58,37.25,18.84c0,0-12.27-21.47-16.22-21.91l27.17-23.22,13.58-60Z"/>
    <g>
      <ellipse class="cls-2" cx="1587.37" cy="184.53" rx="93.66" ry="84.33" transform="translate(900.17 1627.29) rotate(-71.16)"/>
      <path class="cls-4" d="M1648.5,244.88c-46.19-76.16,21.59-88.93,21.59-88.93"/>
      <ellipse cx="1663.85" cy="212.73" rx="11.31" ry="4.5" transform="translate(1041.44 1770.37) rotate(-75.51)"/>
      <path class="cls-4" d="M1633.86,186.84c-24.49,7.46-49.84-18.13-49.84-18.13"/>
      <path class="cls-4" d="M1636.84,256.5s7.51-23.79-15.82-15.46-21.49-13.33-12.08-17"/>
    </g>
    <path class="cls-2" d="M1591.24,275.5,1618.62,325l12.06,73.17s63.09,4.39,34.61-15.77c0,0-24.42-2.63-25.57,1.31l-12.39-64-25.57-46.89Z"/>
  </g>
  <g id="Layer_6" data-name="Layer 6">
    <rect class="cls-9" x="1749.54" y="-0.37" width="350" height="500"/>
    <path class="cls-3" d="M1926.25,298.14l-13.58-5.26L1907,337.13l-34.18-7c-8.53-1-12.27,2-13.58,7,0,0,1.31,52.14,20.15,31.11,0,0,.31-13.1-2.13-20.25a9.91,9.91,0,0,0-1.81-3.41c-4.38-4.82,42.94,7,42.94,7Z"/>
    <g>
      <ellipse class="cls-2" cx="1937.15" cy="207.87" rx="93.66" ry="84.33" transform="translate(1114.91 1974.13) rotate(-71.16)"/>
      <path class="cls-4" d="M1998.27,268.22c-46.19-76.16,21.59-88.93,21.59-88.93"/>
      <ellipse cx="2013.62" cy="236.07" rx="11.31" ry="4.5" transform="translate(1281.07 2126.51) rotate(-75.51)"/>
      <path class="cls-4" d="M1983.63,210.18c-24.48,7.47-49.84-18.13-49.84-18.13"/>
      <path class="cls-4" d="M1986.61,279.84s7.51-23.79-15.82-15.46-21.49-13.33-12.08-17"/>
    </g>
    <path class="cls-2" d="M1933.35,299.64l23.77,46.45s-5.89,49.51-1.95,51.26,58.53,7.45,34.74-14.9c0,0-16.34-4.38-17.65,0l-.44-37.24-26.4-52.53Z"/>
  </g>
  <g id="Layer_7" data-name="Layer 7">
    <rect class="cls-10" x="2099.54" y="-0.37" width="350" height="500"/>
    <path class="cls-3" d="M2278.49,273.61l26.06,33.3-49.39,18.4s21.11,56.32,29.68,21c0,0-2.74-12.7-6.35-16.65l42.83-20.15-36.48-40.31Z"/>
    <g>
      <ellipse class="cls-2" cx="2287.39" cy="190.47" rx="93.66" ry="84.33" transform="translate(1368.53 2293.83) rotate(-71.16)"/>
      <path class="cls-4" d="M2348.51,250.83c-46.18-76.16,21.6-88.94,21.6-88.94"/>
      <ellipse cx="2363.87" cy="218.67" rx="11.31" ry="4.5" transform="translate(1560.49 2452.57) rotate(-75.51)"/>
      <path class="cls-4" d="M2333.88,192.78c-24.49,7.47-49.84-18.13-49.84-18.13"/>
      <path class="cls-4" d="M2336.86,262.45s7.51-23.8-15.82-15.46-21.49-13.34-12.08-17"/>
    </g>
    <path class="cls-2" d="M2256.91,273.61l4.38,49.95-25.85,74.05s69.23,7.45,35.71-13.59c0,0-14.68-4.38-16.87-3.06l16.87-55.21L2267,273.61Z"/>
  </g>
  <g id="Layer_8" data-name="Layer 8">
    <rect class="cls-11" x="2449.54" width="350" height="500"/>
    <g>
      <path class="cls-3" d="M2639.84,275.61c.88,1.75,35.28,22.78,35.28,22.78L2643,317.67s38.89,68.79,38,24.53c0,0-8.33-17.52-12.71-19.71l29.8-22.79-50.8-30.09Z"/>
      <g>
        <ellipse class="cls-2" cx="2637.59" cy="186.11" rx="93.66" ry="84.33" transform="translate(1609.78 2622.32) rotate(-71.16)"/>
        <path class="cls-4" d="M2698.71,246.46c-46.18-76.16,21.6-88.94,21.6-88.94"/>
        <ellipse cx="2714.07" cy="214.3" rx="11.31" ry="4.5" transform="translate(1827.27 2788.34) rotate(-75.51)"/>
        <path class="cls-4" d="M2684.08,188.42c-24.49,7.46-49.85-18.14-49.85-18.14"/>
        <path class="cls-4" d="M2687.06,258.08s7.51-23.8-15.83-15.46-21.48-13.34-12.07-17"/>
      </g>
      <path class="cls-2" d="M2613.55,273.41l-9.2,52.58-35.49,54.77s62.22,40.31,35.93-2.19c0,0-7.89-7-13.58-10.95l25-41.63,7.45-52.58Z"/>
    </g>
  </g>
  <g id="Layer_10" data-name="Layer 10">
    <rect class="cls-5" y="499.63" width="350" height="500"/>
    <path class="cls-3" d="M179,787.33l-12.67,50L135,882s55.75,33.75,47.75,2.25c0,0-19.21-17.25-23.48-14.5l18.48-28.5,11-53.92Z"/>
    <g>
      <ellipse class="cls-2" cx="187.86" cy="699.74" rx="93.66" ry="84.33" transform="translate(-535.06 651.6) rotate(-71.16)"/>
      <path class="cls-4" d="M249,760.1c-46.19-76.16,21.59-88.94,21.59-88.94"/>
      <ellipse cx="264.34" cy="727.94" rx="11.31" ry="4.5" transform="translate(-506.6 801.67) rotate(-75.51)"/>
      <path class="cls-4" d="M234.35,702.05c-24.49,7.47-49.84-18.13-49.84-18.13"/>
      <path class="cls-4" d="M237.33,771.72s7.51-23.8-15.82-15.46-21.49-13.34-12.08-17"/>
    </g>
    <path class="cls-2" d="M190.51,788.67l11.16,55,20,54.66s66-30,30.33-35.33c0,0-23.33,2.33-23.33,6.67S213.33,841,213.33,841L200,786.67Z"/>
  </g>
  <g id="Layer_11" data-name="Layer 11">
    <rect class="cls-6" x="350" y="499.63" width="350" height="500"/>
    <path class="cls-3" d="M517.53,783.13,483.9,830.21l-52.12-31.53s-34.88,47.5-4.2,36.15c0,0,11.77-11.35,12.61-15.55l47.49,25.64L528,785.23Z"/>
    <path class="cls-2" d="M530,786.67,570.19,849,573,898s64,6,37.5-17.5c0,0-17-1-22.51,0l-4.13-37.82L544,781Z"/>
    <g>
      <ellipse class="cls-2" cx="538" cy="699.74" rx="93.66" ry="84.33" transform="translate(-297.98 982.98) rotate(-71.16)"/>
      <path class="cls-4" d="M599.12,760.1c-46.18-76.16,21.6-88.94,21.6-88.94"/>
      <ellipse cx="614.48" cy="727.94" rx="11.31" ry="4.5" transform="translate(-244.09 1140.66) rotate(-75.51)"/>
      <path class="cls-4" d="M584.49,702.05c-24.49,7.47-49.84-18.13-49.84-18.13"/>
      <path class="cls-4" d="M587.47,771.72s7.51-23.8-15.82-15.46-21.49-13.34-12.08-17"/>
    </g>
  </g>
  <g id="Layer_12" data-name="Layer 12">
    <rect class="cls-7" x="700" y="499.63" width="350" height="500"/>
    <path class="cls-3" d="M867,786.67,863.67,826,791,818s-12.67,80.67,17.33,38.67c0,0,4-16.67,2.67-20l-1.33-3.34L875,839.84l2.67-53.17Z"/>
    <g>
      <ellipse class="cls-2" cx="885.84" cy="700.92" rx="93.66" ry="84.33" transform="translate(-63.57 1312.99) rotate(-71.16)"/>
      <path class="cls-4" d="M947,761.28c-46.19-76.16,21.59-88.94,21.59-88.94"/>
      <ellipse cx="962.32" cy="729.12" rx="11.31" ry="4.5" transform="translate(15.54 1478.32) rotate(-75.51)"/>
      <path class="cls-4" d="M932.33,703.23c-24.49,7.47-49.84-18.13-49.84-18.13"/>
      <path class="cls-4" d="M935.31,772.89s7.51-23.79-15.82-15.46-21.49-13.33-12.08-17"/>
    </g>
    <path class="cls-2" d="M885.84,789.33,942.33,826l-11.48,72.69s67.48,4.64,48.82-16c0,0-21.26-7.34-30-2L958.33,820l-60.66-36.87Z"/>
  </g>
  <g id="Layer_13" data-name="Layer 13">
    <rect class="cls-8" x="1050" y="499.63" width="350" height="500"/>
    <path class="cls-3" d="M1246.5,790.5l17,32.5L1195,815s-16,63.44,11.5,34c0,0,7.5-15.55,6-21.27l67,6.77-25.76-51.37Z"/>
    <g>
      <ellipse class="cls-2" cx="1238.72" cy="700.92" rx="93.66" ry="84.33" transform="translate(175.37 1646.97) rotate(-71.16)"/>
      <path class="cls-4" d="M1299.85,761.28c-46.19-76.16,21.59-88.94,21.59-88.94"/>
      <ellipse cx="1315.2" cy="729.12" rx="11.31" ry="4.5" transform="matrix(0.25, -0.97, 0.97, 0.25, 280.1, 1819.96)"/>
      <path class="cls-4" d="M1285.21,703.23c-24.49,7.47-49.84-18.13-49.84-18.13"/>
      <path class="cls-4" d="M1288.19,772.89s7.51-23.79-15.82-15.46-21.49-13.33-12.08-17"/>
    </g>
    <path class="cls-2" d="M1229.87,788.69l20.63,43.5v65.5s67.5,3.5,40-17c0,0-17.92-4-24.46-2l-2.56-51.28L1242,786.35Z"/>
  </g>
  <g id="Layer_14" data-name="Layer 14">
    <rect class="cls-9" x="1399.54" y="499.63" width="350" height="500"/>
    <path class="cls-3" d="M1583.86,780.86l38.29,27.31L1605.47,847s67.8,34.7,49.16.27c0,0-23.14-14.84-25.89-13l12.88-34-53.46-32.24Z"/>
    <g>
      <ellipse class="cls-2" cx="1588.05" cy="700.92" rx="93.66" ry="84.33" transform="translate(411.89 1977.58) rotate(-71.16)"/>
      <path class="cls-4" d="M1649.17,761.28c-46.19-76.16,21.59-88.94,21.59-88.94"/>
      <ellipse cx="1664.53" cy="729.12" rx="11.31" ry="4.5" transform="translate(541.99 2158.17) rotate(-75.51)"/>
      <path class="cls-4" d="M1634.54,703.23c-24.49,7.47-49.85-18.13-49.85-18.13"/>
      <path class="cls-4" d="M1637.52,772.89s7.51-23.79-15.83-15.46-21.49-13.33-12.08-17"/>
    </g>
    <path class="cls-2" d="M1579.16,775.12,1573.69,823l-34.61,55.61s55.45,38.64,42.94,6.7c0,0-13.1-12.86-19.71-14.62l24.92-44.89,3.46-46.21Z"/>
  </g>
  <g id="Layer_15" data-name="Layer 15">
    <rect class="cls-10" x="1749.54" y="499.63" width="350" height="500"/>
    <path class="cls-3" d="M1930.63,794.4l57.94,5.73,18,48s72.15,1.27,36.15-26.86c0,0-29.83-3.86-29.92,0s-15.08-39.87-15.08-39.87l-62-4.14Z"/>
    <g>
      <ellipse class="cls-2" cx="1937.37" cy="699.75" rx="93.66" ry="84.33" transform="translate(649.53 2307.4) rotate(-71.16)"/>
      <path class="cls-4" d="M1998.5,760.11c-46.19-76.16,21.59-88.94,21.59-88.94"/>
      <ellipse cx="2013.85" cy="727.95" rx="11.31" ry="4.5" transform="translate(805.01 2495.5) rotate(-75.51)"/>
      <path class="cls-4" d="M1983.86,702.06c-24.49,7.47-49.84-18.13-49.84-18.13"/>
      <path class="cls-4" d="M1986.84,771.73s7.51-23.8-15.82-15.46-21.49-13.34-12.08-17"/>
    </g>
    <path class="cls-2" d="M1920.69,779.27,1898,829.14l-70-24.93s-26,86.61,13,45.27c0,0,12-18.34,6-20.34,26,10.62,50.73,15.33,73.74,11.52L1938,782Z"/>
  </g>
  <g id="Layer_16" data-name="Layer 16">
    <rect class="cls-11" x="2099.54" y="499.63" width="350" height="500"/>
    <path class="cls-3" d="M2285.48,789l50.62,44,13.24,65s88.65-8.76,38.9-31c0,0-27.57-3-26.28,0l-12.62-47-48.84-40.69Z"/>
    <g>
      <ellipse class="cls-2" cx="2288.24" cy="700.92" rx="93.66" ry="84.33" transform="translate(886 2640.26) rotate(-71.16)"/>
      <path class="cls-4" d="M2349.36,761.28c-46.19-76.16,21.59-88.94,21.59-88.94"/>
      <ellipse cx="2364.72" cy="729.12" rx="11.31" ry="4.5" transform="matrix(0.25, -0.97, 0.97, 0.25, 1066.93, 2836.07)"/>
      <path class="cls-4" d="M2334.73,703.23c-24.49,7.47-49.85-18.13-49.85-18.13"/>
      <path class="cls-4" d="M2337.71,772.89s7.51-23.79-15.83-15.46-21.49-13.33-12.08-17"/>
    </g>
    <path class="cls-2" d="M2273.23,787l-22.55,46.95-67.44-37.52s-49.23,70.9,0,49.14c0,0,18-22.28,15-27.21l3,4.93,59,34.8,29.54-74.66Z"/>
  </g>
  <g id="Layer_17" data-name="Layer 17">
    <rect class="cls-6" x="2449.54" y="499.63" width="350" height="500"/>
    <path class="cls-3" d="M2637.84,790c-1.5,3.57,15,46,15,46v62s66.4,4.67,35.6-20.67c0,0-14.8-2.66-17.8-.66l-3.48-45.34L2647,783.41Z"/>
    <g>
      <ellipse class="cls-2" cx="2637.84" cy="700.92" rx="93.66" ry="84.33" transform="translate(1122.71 2971.14) rotate(-71.16)"/>
      <path class="cls-4" d="M2699,761.28c-46.19-76.16,21.59-88.94,21.59-88.94"/>
      <ellipse cx="2714.32" cy="729.12" rx="11.31" ry="4.5" transform="translate(1329.03 3174.55) rotate(-75.51)"/>
      <path class="cls-4" d="M2684.33,703.23c-24.49,7.47-49.84-18.13-49.84-18.13"/>
      <path class="cls-4" d="M2687.31,772.89s7.51-23.79-15.82-15.46-21.49-13.33-12.08-17"/>
    </g>
    <path class="cls-2" d="M2623.54,787.67V833L2602,877s58.6,34.31,39.33-3.33l-14.66-8L2636.84,833l-3.35-45.33Z"/>
  </g>
  <g id="Layer_18" data-name="Layer 18">
    <rect class="cls-7" x="2799.45" y="498.97" width="350" height="500"/>
    <path class="cls-3" d="M2984.44,790c-1.5,3.57,15,46,15,46v62s66.4,4.67,35.6-20.67c0,0-14.81-2.66-17.8-.66l-3.48-45.34-20.18-47.92Z"/>
    <g>
      <ellipse class="cls-2" cx="2987.34" cy="700.92" rx="93.66" ry="84.33" transform="translate(1359.36 3301.92) rotate(-71.16)"/>
      <path class="cls-4" d="M3048.47,761.28c-46.19-76.16,21.59-88.94,21.59-88.94"/>
      <ellipse cx="3063.82" cy="729.12" rx="11.31" ry="4.5" transform="translate(1591.05 3512.93) rotate(-75.51)"/>
      <path class="cls-4" d="M3033.83,703.23C3009.34,710.7,2984,685.1,2984,685.1"/>
      <path class="cls-4" d="M3036.81,772.89s7.51-23.79-15.82-15.46-21.49-13.33-12.08-17"/>
    </g>
    <path class="cls-2" d="M2984.74,789.24l33,48.88,26.2,47.1s45.24-18.15,23.41-27.54c0,0-16.69,0-18.28,5.24L2994,783.56Z"/>
  </g>
  <g id="Layer_19" data-name="Layer 19">
    <rect class="cls-8" x="3149" y="499" width="350" height="500"/>
    <path class="cls-3" d="M3329.6,788.83c-1.5,3.57,15,46,15,46v62s66.4,4.66,35.6-20.67c0,0-14.8-2.67-17.8-.67l-3.48-45.33-20.18-47.92Z"/>
    <g>
      <ellipse class="cls-2" cx="3337.37" cy="700.92" rx="93.66" ry="84.33" transform="translate(1596.37 3633.2) rotate(-71.16)"/>
      <path class="cls-4" d="M3398.5,761.28c-46.19-76.16,21.59-88.94,21.59-88.94"/>
      <ellipse cx="3413.85" cy="729.12" rx="11.31" ry="4.5" transform="translate(1853.47 3851.82) rotate(-75.51)"/>
      <path class="cls-4" d="M3383.86,703.23C3359.37,710.7,3334,685.1,3334,685.1"/>
      <path class="cls-4" d="M3386.84,772.89s7.51-23.79-15.82-15.46-21.49-13.33-12.08-17"/>
    </g>
    <path class="cls-2" d="M3334.87,782l65.76,11.28,58.95,15.46s20.57-51.13-4.17-40.67c0,0-13.1,13.59-10,19L3337.48,770Z"/>
  </g>
  <g id="Layer_20" data-name="Layer 20">
    <rect class="cls-6" x="-0.5" y="999.25" width="350" height="500"/>
    <path class="cls-3" d="M189,1290.83l-5.61,51.28-24.84,48.58s59.9,25.69,47.6-4.4c0,0-21.42-14.41-25.26-11.1l14.35-30.79,3.41-54.92Z"/>
    <g>
      <ellipse class="cls-2" cx="230.75" cy="1206.34" rx="93.66" ry="84.33" transform="translate(-690.15 393.67) rotate(-37.74)"/>
      <path class="cls-4" d="M248.53,1290.37c3.39-89,67-62.33,67-62.33"/>
      <ellipse cx="279.05" cy="1271.99" rx="11.31" ry="4.5" transform="translate(-780.6 515.05) rotate(-42.09)"/>
      <path class="cls-4" d="M268.28,1233.87c-24.55-7.26-31.62-42.59-31.62-42.59"/>
      <path class="cls-4" d="M232.4,1293.65s19.37-15.72-4.69-21.61-10.59-23-.72-20.85"/>
    </g>
    <path class="cls-2" d="M190.71,1287.09l-15.07,54.06-7,57.78s72.42,3.29,43.08-17.68c0,0-21.84-8.53-23.81-4.67s-.62-32.5-.62-32.5l12.83-54.46Z"/>
  </g>
  <g id="Layer_21" data-name="Layer 21">
    <rect class="cls-7" x="-0.5" y="1499.25" width="350" height="500"/>
    <path class="cls-3" d="M174.9,1777.42l6,47.77-20.43,62.23s63,24.38,43.31-3.68c0,0-15.78-9.39-22.62-9.53l13.56-49.51-7.6-45.71Z"/>
    <g>
      <ellipse class="cls-2" cx="191.87" cy="1700.2" rx="84.33" ry="93.66" transform="translate(-30.28 3.69) rotate(-1.02)"/>
      <path class="cls-4" d="M269.86,1736.19c-69.32-55.94-9.91-91-9.91-91"/>
      <ellipse cx="273.38" cy="1700.74" rx="4.5" ry="11.31" transform="matrix(1, -0.09, 0.09, 1, -157.81, 33.01)"/>
      <path class="cls-4" d="M236.38,1686.58c-20.5,15.34-53-.13-53-.13"/>
      <path d="M260.77,1754.48,227.25,1742s.77,22.37,16.76,32C244,1774,255.66,1763.53,260.77,1754.48Z"/>
    </g>
    <path class="cls-2" d="M184.82,1781l10.45,47-14.56,63.86s65,18.41,42.78-7.68c0,0-16.58-7.89-23.41-7.39l8.9-50.56-11.81-44.81Z"/>
  </g>
  <g id="Layer_22" data-name="Layer 22">
    <rect class="cls-8" x="349.5" y="1499.25" width="350" height="500"/>
    <path class="cls-3" d="M511.67,1811.33l39,35.34L508,1879.5s28.74,36.4,28.27,7.5c0,0-.6-5.5-6.94-10L565,1846l-43.5-39.5Z"/>
    <g>
      <ellipse class="cls-2" cx="543.99" cy="1724.52" rx="93.66" ry="84.33" transform="translate(-1251.96 1513.69) rotate(-65.8)"/>
      <path class="cls-4" d="M599.2,1790.32C560.34,1710.18,629,1703.8,629,1703.8"/>
      <ellipse cx="617.5" cy="1759.75" rx="11.31" ry="4.5" transform="translate(-1247.37 1742.7) rotate(-70.14)"/>
      <path class="cls-4" d="M590.06,1731.17c-25.08,5.14-47.93-22.72-47.93-22.72"/>
      <path d="M583.19,1803l-25-25.58s-8.84,20.56,1.52,36.11C559.7,1813.53,574.71,1809,583.19,1803Z"/>
    </g>
    <path class="cls-2" d="M532.17,1811.33l39,35.34L528.5,1879.5s28.74,36.4,28.27,7.5c0,0-.6-5.5-6.94-10l35.67-31L542,1806.5Z"/>
  </g>
  <g id="Layer_23" data-name="Layer 23">
    <rect class="cls-9" x="699.33" y="1499" width="350" height="500"/>
    <path class="cls-3" d="M878,1777.87l6,47.76-20.43,62.24s63,24.38,43.3-3.68c0,0-15.77-9.39-22.61-9.53l13.55-49.51-7.6-45.71Z"/>
    <g>
      <ellipse class="cls-2" cx="894.24" cy="1702.06" rx="93.66" ry="84.33" transform="translate(-878.04 2447.51) rotate(-85.1)"/>
      <path class="cls-4" d="M968.1,1745.91c-63.17-62.79-.46-91.51-.46-91.51"/>
      <ellipse cx="975.26" cy="1711.01" rx="11.31" ry="4.5" transform="translate(-745.22 2669.46) rotate(-89.44)"/>
      <path class="cls-4" d="M939.92,1693.1c-22,13.15-52.75-5.59-52.75-5.59"/>
      <path d="M957.17,1763.17l-32-15.88s-1.55,22.33,13.36,33.58C938.48,1780.87,951.15,1771.64,957.17,1763.17Z"/>
    </g>
    <path class="cls-2" d="M887.91,1781.42l10.45,47-14.55,63.86s65,18.41,42.77-7.69c0,0-16.58-7.88-23.4-7.38l8.9-50.57-11.82-44.8Z"/>
  </g>
  <g id="Layer_24" data-name="Layer 24">
    <rect class="cls-10" x="1049" y="1499" width="350" height="500"/>
    <path class="cls-3" d="M1232.59,1750.16l21.76,46.77,3.92,54.42s64.54-9,38.44-28.42c0,0-25.79-1.24-27.37,3.59l-3.67-33.77L1240.15,1744Z"/>
    <g>
      <ellipse class="cls-2" cx="1236.44" cy="1667.98" rx="84.33" ry="93.66" transform="translate(-446.29 451.69) rotate(-17.59)"/>
      <path class="cls-4" d="M1321.46,1680.24c-82.39-33.85-35.44-84.38-35.44-84.38"/>
      <ellipse cx="1314.72" cy="1645.25" rx="4.5" ry="11.31" transform="matrix(0.93, -0.37, 0.37, 0.93, -519.41, 610.22)"/>
      <path class="cls-4" d="M1275.22,1642.23c-15.27,20.55-50.87,15-50.87,15"/>
      <path d="M1318,1700.37l-35.68-2.41s7.11,21.22,25.19,25.91C1307.47,1723.87,1315.65,1710.49,1318,1700.37Z"/>
    </g>
    <path class="cls-2" d="M1239.83,1742.17l12.54,54.7,21.37,54.15s65.22-31.66,29.43-36.09c0,0-23.27,2.92-23.16,7.25s-16-28.27-16-28.27l-14.69-54Z"/>
  </g>
</svg>
